<svg width="64" height="64" viewBox="0 0 64 64" fill="none" xmlns="http://www.w3.org/2000/svg">
<path d="M32 0C25.671 0 19.4841 1.87677 14.2218 5.39297C8.95939 8.90918 4.85787 13.9069 2.43587 19.7541C0.0138651 25.6014 -0.619841 32.0355 0.614885 38.2429C1.84961 44.4503 4.89732 50.1521 9.37259 54.6274C13.8479 59.1027 19.5497 62.1504 25.7571 63.3851C31.9645 64.6198 38.3986 63.9861 44.2459 61.5641C50.0931 59.1421 55.0908 55.0406 58.607 49.7782C62.1232 44.5159 64 38.329 64 32C63.991 23.5158 60.6167 15.3817 54.6175 9.38248C48.6183 3.38325 40.4842 0.00895944 32 0ZM32 59.0769C26.6447 59.0769 21.4097 57.4889 16.9569 54.5136C12.5041 51.5384 9.03358 47.3095 6.9842 42.3619C4.93481 37.4142 4.3986 31.97 5.44337 26.7175C6.48813 21.4651 9.06696 16.6405 12.8537 12.8537C16.6405 9.06695 21.4652 6.48812 26.7176 5.44335C31.97 4.39858 37.4142 4.9348 42.3619 6.98418C47.3096 9.03357 51.5384 12.5041 54.5136 16.9569C57.4889 21.4096 59.0769 26.6447 59.0769 32C59.0688 39.1787 56.2134 46.0611 51.1373 51.1373C46.0611 56.2134 39.1788 59.0688 32 59.0769ZM43.5877 27.7969C43.8164 28.0256 43.9978 28.2971 44.1216 28.5959C44.2454 28.8948 44.3091 29.215 44.3091 29.5385C44.3091 29.8619 44.2454 30.1822 44.1216 30.481C43.9978 30.7798 43.8164 31.0513 43.5877 31.28C43.359 31.5087 43.0875 31.6901 42.7887 31.8139C42.4899 31.9377 42.1696 32.0014 41.8462 32.0014C41.5227 32.0014 41.2025 31.9377 40.9036 31.8139C40.6048 31.6901 40.3333 31.5087 40.1046 31.28L34.4615 25.6338V44.3077C34.4615 44.9605 34.2022 45.5866 33.7406 46.0483C33.279 46.5099 32.6528 46.7692 32 46.7692C31.3472 46.7692 30.7211 46.5099 30.2594 46.0483C29.7978 45.5866 29.5385 44.9605 29.5385 44.3077V25.6338L23.8954 31.28C23.4335 31.7419 22.8071 32.0014 22.1539 32.0014C21.5007 32.0014 20.8742 31.7419 20.4123 31.28C19.9504 30.8181 19.6909 30.1917 19.6909 29.5385C19.6909 28.8853 19.9504 28.2588 20.4123 27.7969L30.2585 17.9508C30.4871 17.7219 30.7586 17.5403 31.0574 17.4165C31.3562 17.2926 31.6765 17.2288 32 17.2288C32.3235 17.2288 32.6438 17.2926 32.9426 17.4165C33.2415 17.5403 33.5129 17.7219 33.7415 17.9508L43.5877 27.7969Z" fill="#8C3C63"/>
</svg>
