<svg width="34" height="33" viewBox="0 0 34 33" fill="none" xmlns="http://www.w3.org/2000/svg">
<path d="M1 1H4.14497C5.54892 1 6.25089 1 6.77938 1.36608C7.30786 1.73216 7.52984 2.37218 7.97382 3.65221L9.0719 6.8182" stroke="white" stroke-width="2" stroke-linecap="round"/>
<path d="M29.2514 26.2119H10.1834C9.88837 26.2119 9.74088 26.2119 9.62896 26.1999C8.44322 26.0723 7.63094 24.9891 7.87996 23.8678C7.90345 23.7619 7.95011 23.6275 8.0434 23.3585C8.14698 23.0598 8.19876 22.9105 8.25599 22.7788C8.84177 21.4297 10.167 20.5116 11.6839 20.4042C11.8321 20.3937 11.9958 20.3937 12.3234 20.3937H23.1975" stroke="white" stroke-width="2" stroke-linecap="round" stroke-linejoin="round"/>
<path d="M22.5492 20.3943H16.4123C13.8308 20.3943 12.5401 20.3943 11.5292 19.7537C10.5184 19.1131 10.0099 17.9729 8.99303 15.6926L8.65235 14.9286C7.01882 11.2654 6.20205 9.43379 7.09926 8.12611C7.99645 6.81845 10.0699 6.81845 14.2168 6.81845H24.8735C29.5128 6.81845 31.8325 6.81845 32.7075 8.2674C33.5825 9.71634 32.4314 11.652 30.1297 15.5233L29.5576 16.4856C28.4235 18.3926 27.8566 19.3462 26.9171 19.8702C25.9775 20.3943 24.8347 20.3943 22.5492 20.3943Z" stroke="white" stroke-width="2" stroke-linecap="round"/>
<path d="M28.2416 33.0006C29.3561 33.0006 30.2596 32.1323 30.2596 31.0612C30.2596 29.9901 29.3561 29.1218 28.2416 29.1218C27.1271 29.1218 26.2236 29.9901 26.2236 31.0612C26.2236 32.1323 27.1271 33.0006 28.2416 33.0006Z" fill="white"/>
<path d="M12.0995 32.9997C13.214 32.9997 14.1175 32.1314 14.1175 31.0603C14.1175 29.9892 13.214 29.1209 12.0995 29.1209C10.985 29.1209 10.0815 29.9892 10.0815 31.0603C10.0815 32.1314 10.985 32.9997 12.0995 32.9997Z" fill="white"/>
</svg>
