<svg width="26" height="25" viewBox="0 0 26 25" fill="none" xmlns="http://www.w3.org/2000/svg">
<path d="M1 1H3.3587C4.41164 1 4.93812 1 5.33448 1.27456C5.73084 1.54911 5.89732 2.02913 6.2303 2.98913L7.05385 5.3636" stroke="#294060" stroke-width="2" stroke-linecap="round"/>
<path d="M22.1881 19.9085H7.88728C7.66601 19.9085 7.5554 19.9085 7.47146 19.8995C6.58216 19.8038 5.97297 18.9914 6.15973 18.1504C6.17734 18.071 6.21233 17.9702 6.2823 17.7685C6.35999 17.5445 6.39882 17.4325 6.44174 17.3337C6.88107 16.3219 7.87496 15.6334 9.01265 15.5528C9.12377 15.5449 9.2466 15.5449 9.49225 15.5449H17.6477" stroke="#294060" stroke-width="2" stroke-linecap="round" stroke-linejoin="round"/>
<path d="M17.1619 15.5455H12.5593C10.6232 15.5455 9.65516 15.5455 8.897 15.0651C8.13885 14.5846 7.75753 13.7295 6.99487 12.0193L6.73937 11.4463C5.51424 8.69892 4.90166 7.32525 5.57456 6.3445C6.24745 5.36377 7.80251 5.36377 10.9126 5.36377H18.9051C22.3845 5.36377 24.1242 5.36377 24.7805 6.45047C25.4367 7.53716 24.5734 8.98889 22.8472 11.8923L22.4181 12.614C21.5675 14.0443 21.1424 14.7595 20.4377 15.1525C19.7331 15.5455 18.876 15.5455 17.1619 15.5455Z" stroke="#294060" stroke-width="2" stroke-linecap="round"/>
<path d="M21.4307 23.0913C21.7517 23.0914 21.9441 23.3316 21.9443 23.5454C21.9443 23.7593 21.7519 24.0004 21.4307 24.0005C21.1093 24.0005 20.917 23.7594 20.917 23.5454C20.9172 23.3315 21.1095 23.0913 21.4307 23.0913Z" fill="white" stroke="#294060" stroke-width="2"/>
<path d="M9.32422 23.0903C9.64526 23.0904 9.83763 23.3306 9.83789 23.5444C9.83789 23.7584 9.64547 23.9994 9.32422 23.9995C9.00284 23.9995 8.81055 23.7584 8.81055 23.5444C8.8108 23.3306 9.00305 23.0903 9.32422 23.0903Z" fill="white" stroke="#294060" stroke-width="2"/>
</svg>
