<svg width="40" height="28" viewBox="0 0 40 28" fill="none" xmlns="http://www.w3.org/2000/svg">
<path fill-rule="evenodd" clip-rule="evenodd" d="M23.2955 3C18.5516 3 14.7061 6.97937 14.7061 11.8882C14.7061 16.7969 18.5516 20.7764 23.2955 20.7764C25.4404 20.7764 27.4024 19.9621 28.9073 18.6172L34.1091 24L35.0002 23.0779L29.7984 17.6951C31.098 16.138 31.8849 14.1077 31.8849 11.8882C31.8849 6.97937 28.0392 3 23.2955 3ZM15.9663 11.8882C15.9663 7.69958 19.2476 4.30406 23.2955 4.30406C27.3433 4.30406 30.6247 7.69958 30.6247 11.8882C30.6247 13.9826 29.805 15.8778 28.478 17.251C27.151 18.6242 25.3195 19.4723 23.2955 19.4723C19.2476 19.4723 15.9663 16.0768 15.9663 11.8882Z" fill="#43314B"/>
<path d="M12.9412 17H5V18H12.9412V17Z" fill="#43314B"/>
<path d="M11.1765 12H5V13H11.1765V12Z" fill="#43314B"/>
<path d="M12.9412 6H5V7H12.9412V6Z" fill="#43314B"/>
</svg>
