<svg width="38" height="38" viewBox="0 0 38 38" fill="none" xmlns="http://www.w3.org/2000/svg">
<g clip-path="url(#clip0_7_879)">
<rect width="38" height="38" rx="19" fill="#527B69"/>
<path fill-rule="evenodd" clip-rule="evenodd" d="M23.5272 12.6L22.322 13.0512C22.2078 13.0934 22.1309 13.1145 22.0196 13.1579C21.966 13.1784 21.9141 13.1929 21.8803 13.2034C21.7433 13.2468 21.3878 13.4212 21.1361 13.4768C21.1314 13.4801 21.1238 13.4785 21.1215 13.4851L21.0755 13.5068C21.0446 13.519 21.0213 13.524 20.9892 13.5346L19.664 14.0241C19.2152 14.2152 18.2997 14.5147 17.8084 14.6997L16.3544 15.2303L14.7191 15.841C14.3921 15.9665 14.0314 16.0721 13.7062 16.2121L13.2901 16.3638C13.2033 16.3988 13.1799 16.4133 13.0785 16.4405C13.0727 16.4421 13.0453 16.4494 13.0407 16.451C13.0377 16.4522 13.0319 16.4549 13.029 16.456L11.8815 16.8839C11.7387 16.9355 11.6006 16.9767 11.4654 17.035C11.3232 17.0961 11.2055 17.1367 11.054 17.1906L10.4723 17.4034C10.1407 17.5284 9.80972 17.6212 9.50435 17.7956C9.1675 17.989 8.80559 18.3079 9.12146 18.6846L9.19139 18.7502C9.53057 19.0264 10.4123 19.1964 10.8861 19.3481C11.174 19.4403 11.4485 19.5114 11.7422 19.6053L12.8565 19.9492C12.8594 19.9504 12.8658 19.9526 12.8687 19.9531L13.8583 20.2404C14.1182 20.311 14.1812 20.4082 14.3729 20.2893L15.236 19.7753C15.2605 19.7598 15.2494 19.7664 15.2774 19.7487C15.5717 19.5625 16.6492 18.9025 16.9138 18.7669C17.0071 18.7197 17.0158 18.703 17.0945 18.6535L17.4389 18.4596C17.4412 18.4585 17.4471 18.4557 17.4494 18.4541C17.4517 18.453 17.4576 18.4496 17.4599 18.448L17.9279 18.1551C18.5742 17.7862 19.203 17.3845 19.844 17.0011L21.2468 16.1688C21.368 16.0943 21.4752 16.0249 21.5971 15.9532L22.6705 15.3126C22.6746 15.3098 22.6804 15.3065 22.6845 15.3037L23.4579 14.8358C23.5173 14.7986 23.5832 14.7614 23.6432 14.7275L24.6998 14.0907C24.8606 13.9874 25.3175 13.7157 25.504 13.9813C25.4696 14.1213 25.3414 14.2408 25.2219 14.3236L25.0733 14.4469C25.0471 14.4719 25.0407 14.4752 25.0127 14.4991C25.0092 14.5019 25.004 14.5058 25.0005 14.5091L24.5675 14.8853C24.4777 14.972 24.4049 15.0164 24.3146 15.1042L23.4287 15.8599C23.3809 15.9037 23.3518 15.9399 23.3029 15.981L23.1496 16.0982C23.1298 16.1177 23.1379 16.1116 23.1164 16.1321C23.1 16.1482 23.1047 16.1449 23.082 16.1649L21.5038 17.5101C21.4484 17.589 21.4106 17.6134 21.34 17.6606L21.2177 17.7634C21.2142 17.7662 21.2089 17.7706 21.206 17.7734L20.8196 18.1068C20.7753 18.1462 20.7497 18.1768 20.7054 18.2174L19.3236 19.3981C19.3184 19.4025 19.3038 19.4142 19.2986 19.4186C19.2951 19.4214 19.2904 19.4258 19.2869 19.4286C19.2834 19.432 19.2782 19.4364 19.2747 19.4392L18.9786 19.7048C18.8813 19.7792 18.8312 19.8353 18.7321 19.9081L18.2624 20.3154C18.2589 20.3182 18.2536 20.3226 18.2501 20.3254L16.8655 21.5261C16.8206 21.59 16.8165 21.7884 16.8118 21.8928L16.7314 23.0218C16.6999 23.1658 16.6417 24.5615 16.6009 24.8465L16.5152 26.0139C17.01 26.0139 17.214 25.7977 17.4634 25.5594C17.5904 25.4383 17.7041 25.3521 17.8317 25.2305C17.9413 25.1254 18.0759 24.9799 18.1901 24.8932C18.3434 24.7765 18.6884 24.432 18.9238 24.2337L19.6645 23.5591L19.9449 23.7525C19.9489 23.7553 19.9548 23.7586 19.9583 23.7614L21.5038 24.8526L24.2365 26.7779C24.2394 26.779 24.2452 26.7823 24.2475 26.7834L24.645 26.9429C24.9918 27.0468 25.2552 27.0084 25.4877 26.8318C25.5133 26.8123 25.5308 26.7984 25.5501 26.7812C25.5734 26.7612 25.5984 26.739 25.6182 26.7145C25.6212 26.7106 25.6247 26.7056 25.6276 26.7017L25.6707 26.6328C25.944 26.2028 25.9394 25.9367 26.0454 25.4783C26.0454 25.4777 26.0588 25.426 26.0594 25.4255L26.0786 25.3782C26.0874 25.2782 26.1235 25.1493 26.1422 25.0665L27.6527 18.284C27.7273 17.8829 27.8427 17.4667 27.9261 17.0694L28.1026 16.2732C28.1533 16.0788 28.2122 15.7021 28.2885 15.4304L28.5286 14.3224C28.6283 13.8929 28.7204 13.4768 28.809 13.0551C28.8882 12.6745 29.0584 12.1827 28.9797 11.7416C28.9611 11.6366 28.9045 11.4521 28.8463 11.3643C28.7157 11.1659 28.4511 11.0143 28.1941 11.0009C27.7291 10.9776 26.8695 11.4032 26.4207 11.5454C25.9178 11.7049 25.2091 11.9994 24.6963 12.1805L23.8326 12.4972C23.7452 12.5322 23.6146 12.5811 23.5272 12.6Z" fill="white"/>
<path fill-rule="evenodd" clip-rule="evenodd" d="M23.5268 12.5995V12.5781L23.5 12.5962L23.5268 12.5995Z" fill="white"/>
<path fill-rule="evenodd" clip-rule="evenodd" d="M21.5034 17.5102V17.4883L21.4766 17.5064L21.5034 17.5102Z" fill="white"/>
<path fill-rule="evenodd" clip-rule="evenodd" d="M26.0781 25.3789V25.4008L26.1049 25.3827L26.0781 25.3789Z" fill="white"/>
<path fill-rule="evenodd" clip-rule="evenodd" d="M21.5032 24.8535H21.4805L21.4997 24.8787L21.5032 24.8535Z" fill="white"/>
<path fill-rule="evenodd" clip-rule="evenodd" d="M21.1362 13.4765V13.4551L21.1094 13.4732L21.1362 13.4765Z" fill="white"/>
<path fill-rule="evenodd" clip-rule="evenodd" d="M16.3549 15.2304V15.209L16.3281 15.2271L16.3549 15.2304Z" fill="white"/>
</g>
<defs>
<clipPath id="clip0_7_879">
<rect width="38" height="38" rx="19" fill="white"/>
</clipPath>
</defs>
</svg>
