<svg width="38" height="38" viewBox="0 0 38 38" fill="none" xmlns="http://www.w3.org/2000/svg">
<g clip-path="url(#clip0_7_772)">
<rect width="38" height="38" rx="19" fill="#527B69"/>
<path fill-rule="evenodd" clip-rule="evenodd" d="M9.11523 17.3613C9.11523 18.5054 9.57808 19.6709 9.95878 20.433C10.6387 21.7888 11.4836 23.1159 12.4948 24.25C12.6671 24.443 13.0131 24.8898 13.1954 25.0287C13.3998 25.1857 13.5066 25.3126 13.7063 25.4722C15.1483 26.6364 16.1575 27.4385 17.8707 28.2326C18.6387 28.59 19.9425 29.0481 21.0151 28.9259C22.1525 28.7957 23.139 28.421 23.9471 27.9421C24.593 27.5587 25.7818 26.595 25.7818 25.8142C25.7818 24.6981 25.5708 23.9868 24.5783 23.339C23.6005 22.7011 21.5881 21.8442 20.6711 23.1393C19.2752 25.1056 17.9555 24.634 16.4814 23.2702C16.2864 23.0919 16.1996 22.983 15.9859 22.8113C15.7421 22.6183 14.417 21.1877 14.1485 20.7809C14.0062 20.5639 13.9014 20.4169 13.7952 20.1798C13.347 19.1827 13.7972 18.2269 14.5392 17.6739C15.2378 17.1543 15.6098 16.9052 15.6098 15.9294C15.6098 15.0384 15.0949 14.0352 14.7222 13.4749C14.0797 12.5064 12.772 11.8953 11.7407 12.443C10.1799 13.2685 9.11523 15.8539 9.11523 17.3613ZM20.0981 9.10082L20.1007 10.3444C20.1542 10.6136 20.1876 10.4379 20.3372 10.4379C21.8606 10.4379 23.2238 10.7986 24.3679 11.564C24.5563 11.6909 24.7099 11.7911 24.8749 11.9173C25.6576 12.5138 26.3556 13.4067 26.8011 14.2897C27.4255 15.5346 27.5003 16.4269 27.5003 17.8395H28.8849C28.8849 16.0957 28.7834 15.2661 28.0574 13.6993C27.7748 13.0902 27.0362 12.0529 26.582 11.5954L26.055 11.1179C25.9315 10.999 25.9041 10.9776 25.7752 10.8727L25.1707 10.4279C23.7601 9.54096 22.2727 9.05273 20.3846 9.05273C20.221 9.05273 20.2837 9.08145 20.0981 9.10082ZM25.0178 17.6258V18.6036H26.4017L26.4077 17.7387C26.4077 17.7313 26.3997 17.6018 26.3997 17.6004C26.3569 17.4355 26.4297 17.5557 26.3115 17.4562C26.5473 16.7669 25.5848 14.6964 24.9804 14.0078C24.7172 13.7106 24.4962 13.4301 24.1909 13.1736C23.5451 12.63 22.9907 12.3 22.1525 11.9648C21.7872 11.8178 21.3076 11.6956 20.8615 11.6341C20.6237 11.6014 20.3726 11.6014 20.1188 11.5633C19.7374 11.5066 19.6953 11.5834 19.3814 11.5834V12.9679C19.8323 12.9679 19.6426 12.8591 20.5636 12.9806C21.5421 13.1068 22.5165 13.571 23.2365 14.1755C23.9972 14.8173 24.4614 15.5794 24.772 16.5084C24.9049 16.9025 24.937 17.189 25.0178 17.6258ZM19.4776 14.1888C19.4415 14.12 19.5063 14.118 19.2425 14.11C18.2721 14.074 18.5225 14.0159 18.5225 15.5467C18.7943 15.5467 18.58 15.562 18.6661 15.4712C19.3467 15.6215 19.5177 15.3543 20.6083 15.8966C21.1654 16.1745 21.5421 16.5225 21.876 17.0167C22.3061 17.6545 22.3776 18.0225 22.4484 18.788C22.4851 19.186 22.4203 19.0858 22.4337 19.2742C22.4504 19.534 22.5833 19.4692 22.8658 19.4645C23.7528 19.4492 23.7748 19.5821 23.8416 19.2421C24.0139 18.3725 23.4997 16.8644 22.9293 16.107C22.5212 15.56 21.9555 15.017 21.325 14.7024C20.9536 14.5188 20.0293 14.0726 19.4776 14.1888Z" fill="white"/>
</g>
<defs>
<clipPath id="clip0_7_772">
<rect width="38" height="38" rx="19" fill="white"/>
</clipPath>
</defs>
</svg>
