<svg width="39" height="38" viewBox="0 0 39 38" fill="none" xmlns="http://www.w3.org/2000/svg">
<g clip-path="url(#clip0_539_3207)">
<rect x="0.5" width="38" height="38" rx="19" fill="#294060"/>
<path fill-rule="evenodd" clip-rule="evenodd" d="M9.61523 17.3618C9.61523 18.5059 10.0781 19.6714 10.4588 20.4335C11.1387 21.7893 11.9836 23.1164 12.9948 24.2505C13.1671 24.4435 13.5131 24.8903 13.6954 25.0292C13.8998 25.1862 14.0066 25.3131 14.2063 25.4727C15.6483 26.6369 16.6575 27.439 18.3707 28.2331C19.1387 28.5904 20.4425 29.0486 21.5151 28.9264C22.6525 28.7962 23.639 28.4215 24.4471 27.9426C25.093 27.5592 26.2818 26.5954 26.2818 25.8147C26.2818 24.6986 26.0708 23.9873 25.0783 23.3395C24.1005 22.7016 22.0881 21.8447 21.1711 23.1398C19.7752 25.106 18.4555 24.6345 16.9814 23.2707C16.7864 23.0923 16.6996 22.9835 16.4859 22.8118C16.2421 22.6188 14.917 21.1882 14.6485 20.7814C14.5062 20.5644 14.4014 20.4174 14.2952 20.1803C13.847 19.1832 14.2972 18.2274 15.0392 17.6744C15.7378 17.1548 16.1098 16.9056 16.1098 15.9299C16.1098 15.0389 15.5949 14.0357 15.2222 13.4753C14.5797 12.5069 13.272 11.8958 12.2407 12.4434C10.6799 13.269 9.61523 15.8544 9.61523 17.3618ZM20.5981 9.10131L20.6007 10.3449C20.6542 10.6141 20.6876 10.4384 20.8372 10.4384C22.3606 10.4384 23.7238 10.7991 24.8679 11.5645C25.0563 11.6914 25.2099 11.7916 25.3749 11.9178C26.1576 12.5142 26.8556 13.4072 27.3011 14.2902C27.9255 15.5351 28.0003 16.4274 28.0003 17.84H29.3849C29.3849 16.0962 29.2834 15.2666 28.5574 13.6998C28.2748 13.0906 27.5362 12.0534 27.082 11.5959L26.555 11.1183C26.4315 10.9995 26.4041 10.9781 26.2752 10.8732L25.6707 10.4284C24.2601 9.54145 22.7727 9.05322 20.8846 9.05322C20.721 9.05322 20.7837 9.08194 20.5981 9.10131ZM25.5178 17.6263V18.6041H26.9017L26.9077 17.7392C26.9077 17.7318 26.8997 17.6023 26.8997 17.6009C26.8569 17.436 26.9297 17.5562 26.8115 17.4567C27.0473 16.7674 26.0848 14.6969 25.4804 14.0083C25.2172 13.7111 24.9962 13.4306 24.6909 13.1741C24.0451 12.6305 23.4907 12.3005 22.6525 11.9652C22.2872 11.8183 21.8076 11.6961 21.3615 11.6346C21.1237 11.6019 20.8726 11.6019 20.6188 11.5638C20.2374 11.5071 20.1953 11.5839 19.8814 11.5839V12.9684C20.3323 12.9684 20.1426 12.8595 21.0636 12.9811C22.0421 13.1073 23.0165 13.5715 23.7365 14.176C24.4972 14.8178 24.9614 15.5799 25.272 16.5089C25.4049 16.903 25.437 17.1895 25.5178 17.6263ZM19.9776 14.1893C19.9415 14.1205 20.0063 14.1185 19.7425 14.1105C18.7721 14.0744 19.0225 14.0163 19.0225 15.5472C19.2943 15.5472 19.08 15.5625 19.1661 15.4717C19.8467 15.622 20.0177 15.3548 21.1083 15.8971C21.6654 16.175 22.0421 16.5229 22.376 17.0172C22.8061 17.655 22.8776 18.023 22.9484 18.7884C22.9851 19.1865 22.9203 19.0863 22.9337 19.2747C22.9504 19.5345 23.0833 19.4697 23.3658 19.465C24.2528 19.4497 24.2748 19.5826 24.3416 19.2426C24.5139 18.373 23.9997 16.8649 23.4293 16.1075C23.0212 15.5605 22.4555 15.0175 21.825 14.7029C21.4536 14.5193 20.5293 14.0731 19.9776 14.1893Z" fill="white"/>
</g>
<defs>
<clipPath id="clip0_539_3207">
<rect x="0.5" width="38" height="38" rx="19" fill="white"/>
</clipPath>
</defs>
</svg>
