<svg width="38" height="38" viewBox="0 0 38 38" fill="none" xmlns="http://www.w3.org/2000/svg">
<g clip-path="url(#clip0_539_850)">
<rect width="38" height="38" rx="19" fill="white"/>
<path fill-rule="evenodd" clip-rule="evenodd" d="M9.11523 17.3618C9.11523 18.5059 9.57808 19.6714 9.95878 20.4335C10.6387 21.7893 11.4836 23.1164 12.4948 24.2505C12.6671 24.4435 13.0131 24.8903 13.1954 25.0292C13.3998 25.1862 13.5066 25.3131 13.7063 25.4727C15.1483 26.6369 16.1575 27.439 17.8707 28.2331C18.6387 28.5904 19.9425 29.0486 21.0151 28.9264C22.1525 28.7962 23.139 28.4215 23.9471 27.9426C24.593 27.5592 25.7818 26.5954 25.7818 25.8147C25.7818 24.6986 25.5708 23.9873 24.5783 23.3395C23.6005 22.7016 21.5881 21.8447 20.6711 23.1398C19.2752 25.106 17.9555 24.6345 16.4814 23.2707C16.2864 23.0923 16.1996 22.9835 15.9859 22.8118C15.7421 22.6188 14.417 21.1882 14.1485 20.7814C14.0062 20.5644 13.9014 20.4174 13.7952 20.1803C13.347 19.1832 13.7972 18.2274 14.5392 17.6744C15.2378 17.1548 15.6098 16.9056 15.6098 15.9299C15.6098 15.0389 15.0949 14.0357 14.7222 13.4753C14.0797 12.5069 12.772 11.8958 11.7407 12.4434C10.1799 13.269 9.11523 15.8544 9.11523 17.3618ZM20.0981 9.10131L20.1007 10.3449C20.1542 10.6141 20.1876 10.4384 20.3372 10.4384C21.8606 10.4384 23.2238 10.7991 24.3679 11.5645C24.5563 11.6914 24.7099 11.7916 24.8749 11.9178C25.6576 12.5142 26.3556 13.4072 26.8011 14.2902C27.4255 15.5351 27.5003 16.4274 27.5003 17.84H28.8849C28.8849 16.0962 28.7834 15.2666 28.0574 13.6998C27.7748 13.0906 27.0362 12.0534 26.582 11.5959L26.055 11.1183C25.9315 10.9995 25.9041 10.9781 25.7752 10.8732L25.1707 10.4284C23.7601 9.54145 22.2727 9.05322 20.3846 9.05322C20.221 9.05322 20.2837 9.08194 20.0981 9.10131ZM25.0178 17.6263V18.6041H26.4017L26.4077 17.7392C26.4077 17.7318 26.3997 17.6023 26.3997 17.6009C26.3569 17.436 26.4297 17.5562 26.3115 17.4567C26.5473 16.7674 25.5848 14.6969 24.9804 14.0083C24.7172 13.7111 24.4962 13.4306 24.1909 13.1741C23.5451 12.6305 22.9907 12.3005 22.1525 11.9652C21.7872 11.8183 21.3076 11.6961 20.8615 11.6346C20.6237 11.6019 20.3726 11.6019 20.1188 11.5638C19.7374 11.5071 19.6953 11.5839 19.3814 11.5839V12.9684C19.8323 12.9684 19.6426 12.8595 20.5636 12.9811C21.5421 13.1073 22.5165 13.5715 23.2365 14.176C23.9972 14.8178 24.4614 15.5799 24.772 16.5089C24.9049 16.903 24.937 17.1895 25.0178 17.6263ZM19.4776 14.1893C19.4415 14.1205 19.5063 14.1185 19.2425 14.1105C18.2721 14.0744 18.5225 14.0163 18.5225 15.5472C18.7943 15.5472 18.58 15.5625 18.6661 15.4717C19.3467 15.622 19.5177 15.3548 20.6083 15.8971C21.1654 16.175 21.5421 16.5229 21.876 17.0172C22.3061 17.655 22.3776 18.023 22.4484 18.7884C22.4851 19.1865 22.4203 19.0863 22.4337 19.2747C22.4504 19.5345 22.5833 19.4697 22.8658 19.465C23.7528 19.4497 23.7748 19.5826 23.8416 19.2426C24.0139 18.373 23.4997 16.8649 22.9293 16.1075C22.5212 15.5605 21.9555 15.0175 21.325 14.7029C20.9536 14.5193 20.0293 14.0731 19.4776 14.1893Z" fill="#212529"/>
</g>
<defs>
<clipPath id="clip0_539_850">
<rect width="38" height="38" rx="19" fill="white"/>
</clipPath>
</defs>
</svg>
