<svg width="38" height="38" viewBox="0 0 38 38" fill="none" xmlns="http://www.w3.org/2000/svg">
<g clip-path="url(#clip0_7_872)">
<rect width="38" height="38" rx="19" fill="#527B69"/>
<path fill-rule="evenodd" clip-rule="evenodd" d="M15.8758 26.1279L11.3656 27.5649L10 28L11.9185 22.3266C11.5965 21.7341 11.3415 21.1064 11.1598 20.4564C10.9394 19.6677 10.8282 18.8526 10.8282 18.0336C10.8282 15.6237 11.7859 13.3391 13.4931 11.6436C15.2058 9.94254 17.5048 9 19.9168 9C22.328 9 24.6258 9.94367 26.3371 11.6449C28.0436 13.3415 29 15.6267 29 18.0365C29 20.446 28.0425 22.7304 26.3358 24.4258C24.6237 26.1266 22.3255 27.0694 19.9141 27.0694C19.1491 27.0694 18.3869 26.9749 17.6456 26.785C17.0343 26.6284 16.441 26.4078 15.8758 26.1279L15.8758 26.1279Z" fill="white"/>
<path fill-rule="evenodd" clip-rule="evenodd" d="M15.8758 26.1279L11.3656 27.5649L10 28L11.9185 22.3266C11.5965 21.7341 11.3415 21.1064 11.1598 20.4564C10.9394 19.6677 10.8282 18.8526 10.8282 18.0336C10.8282 15.6237 11.7859 13.3391 13.4931 11.6436C15.2058 9.94254 17.5048 9 19.9168 9C22.328 9 24.6258 9.94367 26.3371 11.6449C28.0436 13.3415 29 15.6267 29 18.0365C29 20.446 28.0425 22.7304 26.3358 24.4258C24.6237 26.1266 22.3255 27.0694 19.9141 27.0694C19.1491 27.0694 18.3869 26.9749 17.6456 26.785C17.0343 26.6284 16.441 26.4078 15.8758 26.1279L15.8758 26.1279Z" fill="white"/>
<path fill-rule="evenodd" clip-rule="evenodd" d="M28.276 18.0366C28.276 15.7418 27.3401 13.6641 25.8271 12.1598C24.3142 10.6558 22.2248 9.72559 19.9174 9.72559C17.608 9.72559 15.5175 10.6555 14.004 12.1587C12.4897 13.6626 11.5534 15.74 11.5534 18.0337C11.5534 18.8037 11.6598 19.5509 11.8582 20.261C12.0554 20.9666 12.3439 21.6346 12.7096 22.2512L11.261 26.535L11.1465 26.8737L11.4867 26.7653L15.9422 25.3457C16.5321 25.6635 17.1632 25.9125 17.8258 26.0823C18.4933 26.2532 19.193 26.344 19.9147 26.344C22.2231 26.344 24.3129 25.414 25.826 23.9109C27.3398 22.4071 28.276 20.33 28.276 18.0366L28.276 18.0366Z" fill="white"/>
<path fill-rule="evenodd" clip-rule="evenodd" d="M18.5569 15.7683C18.5202 15.6943 18.3083 15.1819 18.1131 14.7097C17.9882 14.4078 17.8692 14.1199 17.8458 14.0642C17.6259 13.5393 17.3828 13.5551 17.1964 13.5672C17.1842 13.568 17.1724 13.5688 17.1566 13.5688C17.0916 13.5688 17.0276 13.5647 16.9614 13.5605C16.8785 13.5553 16.7925 13.5498 16.7113 13.5498C16.6033 13.5498 16.4561 13.5722 16.3012 13.6449C16.1863 13.6987 16.0677 13.7798 15.9592 13.8991C15.9434 13.9162 15.9315 13.9288 15.9185 13.9424C15.6604 14.2141 15.0977 14.8063 15.0977 15.9437C15.0977 17.1368 15.957 18.2714 16.0832 18.438L16.0828 18.4383L16.084 18.4398L16.0854 18.4413C16.0903 18.4477 16.1086 18.4744 16.1355 18.5138C16.4529 18.9786 17.9118 21.1149 20.1297 21.9822C22.1417 22.7682 22.5058 22.68 22.831 22.6013C22.8864 22.5878 22.9404 22.5747 22.9989 22.5693C23.2623 22.5445 23.6931 22.364 24.0556 22.1106C24.3564 21.9003 24.6189 21.6346 24.7194 21.3548C24.8091 21.1046 24.8598 20.8722 24.8833 20.6809C24.9175 20.403 24.8904 20.1844 24.8399 20.0999L24.8392 20.0992C24.7624 19.9725 24.6296 19.9098 24.4304 19.8156C24.3953 19.799 24.3577 19.7812 24.3216 19.7637L24.3217 19.7635C24.1843 19.6936 23.709 19.4609 23.3028 19.2686C23.0402 19.1443 22.807 19.0376 22.7146 19.0044C22.5846 18.9577 22.4714 18.9224 22.3501 18.936C22.2124 18.9516 22.0924 19.0226 21.9811 19.1913L21.9808 19.1911C21.9249 19.2751 21.8264 19.4012 21.7188 19.5331C21.5484 19.7422 21.3451 19.9769 21.2584 20.0754V20.0762C21.2214 20.1183 21.1895 20.1413 21.1582 20.1451C21.1148 20.1503 21.0551 20.1325 20.9725 20.0919C20.9197 20.0654 20.8682 20.0432 20.8047 20.0157C20.4834 19.8769 19.8576 19.6066 19.1444 18.9744C18.8893 18.7483 18.6648 18.5012 18.4772 18.2693C18.1738 17.8939 17.9687 17.5596 17.8872 17.4187C17.8228 17.3083 17.8943 17.2367 17.9603 17.1706L17.96 17.1702C18.033 17.0972 18.1155 16.9979 18.1984 16.8981C18.2362 16.8527 18.2739 16.8073 18.3198 16.7543L18.3205 16.7536C18.4323 16.6235 18.4786 16.5287 18.5412 16.4008C18.552 16.3786 18.5635 16.3552 18.5749 16.3323L18.5756 16.3316C18.6306 16.2207 18.6447 16.1151 18.6345 16.0162C18.625 15.9242 18.5942 15.842 18.5566 15.7684L18.5569 15.7683Z" fill="#527B69"/>
</g>
<defs>
<clipPath id="clip0_7_872">
<rect width="38" height="38" rx="19" fill="white"/>
</clipPath>
</defs>
</svg>
