<svg width="38" height="38" viewBox="0 0 38 38" fill="none" xmlns="http://www.w3.org/2000/svg">
<g clip-path="url(#clip0_167_53)">
<rect width="38" height="38" rx="19" fill="#8C3C63"/>
<path fill-rule="evenodd" clip-rule="evenodd" d="M28.5443 13.8135C28.6814 13.3446 28.5443 13 27.8832 13H25.6964C25.1396 13 24.8837 13.2961 24.746 13.6261C24.746 13.6261 23.6323 16.3674 22.0581 18.1448C21.5492 18.6588 21.3157 18.8238 21.0369 18.8238C20.8998 18.8238 20.688 18.6588 20.688 18.1898V13.8135C20.688 13.2511 20.5319 13 20.0715 13H16.6333C16.2844 13 16.0765 13.2624 16.0765 13.5061C16.0765 14.0388 16.8635 14.1621 16.9455 15.6625V18.9172C16.9455 19.63 16.8195 19.7612 16.5408 19.7612C15.7983 19.7612 13.9939 17.0086 12.9242 13.8586C12.7091 13.2472 12.4973 13 11.937 13H9.75029C9.12653 13 9 13.2961 9 13.6261C9 14.211 9.74248 17.1173 12.4566 20.9576C14.2648 23.5784 16.8117 25 19.1283 25C20.5208 25 20.6919 24.6847 20.6919 24.1414C20.6919 21.636 20.5654 21.4001 21.2633 21.4001C21.5866 21.4001 22.1434 21.5651 23.4428 22.8285C24.9277 24.3289 25.173 25 26.0047 25H28.1914C28.8152 25 29.1307 24.6847 28.949 24.0626C28.5331 22.7536 25.7226 20.0613 25.5961 19.8811C25.2733 19.4611 25.3659 19.2736 25.5961 18.8987C25.6 18.8947 28.2695 15.1 28.5443 13.8135Z" fill="white"/>
</g>
<defs>
<clipPath id="clip0_167_53">
<rect width="38" height="38" rx="19" fill="white"/>
</clipPath>
</defs>
</svg>
