<?xml version="1.0" encoding="UTF-8"?>
<!DOCTYPE svg PUBLIC "-//W3C//DTD SVG 1.1//EN" "http://www.w3.org/Graphics/SVG/1.1/DTD/svg11.dtd">
<!-- Creator: CorelDRAW 2018 (64-Bit Evaluation Version) -->
<svg xmlns="http://www.w3.org/2000/svg" xml:space="preserve" width="5.4186mm" height="5.4186mm" version="1.1" style="shape-rendering:geometricPrecision; text-rendering:geometricPrecision; image-rendering:optimizeQuality; fill-rule:evenodd; clip-rule:evenodd"
viewBox="0 0 541.86 541.86"
 xmlns:xlink="http://www.w3.org/1999/xlink">
 <defs>
  <style type="text/css">
   <![CDATA[
    .fil0 {fill:white}
   ]]>
  </style>
 </defs>
 <g id="Layer_x0020_1">
  <metadata id="CorelCorpID_0Corel-Layer"/>
  <path class="fil0" d="M222.56 168.67c-2.18,-31.61 29.36,-55.56 62.25,-47.67 15.3,3.68 26.3,12.93 32.33,23.91 7.96,14.49 5.52,30.7 0.14,46.48 -6.06,17.78 -17.97,41.23 -33.69,50.72 -30.25,18.25 -59.09,-45.17 -61.03,-73.44zm-73.72 201.63c0.09,-29.25 7.36,-81.81 39.57,-90.42 7.75,-2.07 7.65,-1.71 11.06,2.3 2.19,2.61 4.9,5.39 7.45,7.64 18.84,16.69 37.06,25.63 65.64,25.05 18.75,-0.36 34.04,-6.45 46.06,-14.85 6.51,-4.55 11.09,-8.92 16.13,-14.07 1.44,-1.46 2.49,-2.48 3.77,-3.98 0.64,-0.77 2.85,-3.47 3.57,-3.72 1.89,-0.63 10.55,1.46 12.64,2.05 24.24,6.92 33.51,31.85 35.94,55.03 0.69,6.46 1.63,29.04 0.33,35.15 -30.95,30.12 -73.94,48.23 -119.33,47.67 -56.71,-0.69 -109.3,-31.29 -122.8,-45.32l-0.03 -2.53zm262.4 16.23c1.5,-3.6 2.77,-18.25 3.12,-23 3.61,-48.89 -11.8,-104.09 -71.96,-108.21 -12.73,-0.87 -11.25,-0.78 -15.12,3.99 -6.17,7.62 -8.58,9.94 -15.56,16.66 -20.04,19.26 -54.34,20.54 -77.21,5.05 -7.77,-5.25 -20.14,-17.19 -25.95,-25.42 -35.95,-2.52 -56.49,16.64 -68.01,38.82 -13.56,26.08 -15.22,59.09 -12.37,92.26 41.67,34.32 94.26,57.12 144.75,57.19 53.59,0.08 104.88,-24.54 138.31,-57.34zm-145.46 -288.11c-43.72,4.82 -73.57,41.67 -61.74,88.23 2.72,10.74 5.72,19.53 10.01,28.72 3.98,8.56 9.58,18.26 14.66,24.51 9.46,11.64 25.87,29.61 50.95,25.73 19.89,-3.07 34.97,-21.12 43.37,-34.22 9.88,-15.37 17.92,-35.07 20.93,-57.01 6.11,-44.53 -34.18,-80.82 -78.18,-75.96z"/>
 </g>
</svg>
