<?xml version="1.0" encoding="UTF-8"?>
<!DOCTYPE svg PUBLIC "-//W3C//DTD SVG 1.1//EN" "http://www.w3.org/Graphics/SVG/1.1/DTD/svg11.dtd">
<!-- Creator: CorelDRAW 2018 (64-Bit Evaluation Version) -->
<svg xmlns="http://www.w3.org/2000/svg" xml:space="preserve" width="5.4186mm" height="5.4186mm" version="1.1" style="shape-rendering:geometricPrecision; text-rendering:geometricPrecision; image-rendering:optimizeQuality; fill-rule:evenodd; clip-rule:evenodd"
viewBox="0 0 541.86 541.86"
 xmlns:xlink="http://www.w3.org/1999/xlink">
 <defs>
  <style type="text/css">
   <![CDATA[
    .fil0 {fill:#FEFEFE}
   ]]>
  </style>
 </defs>
 <g id="Layer_x0020_1">
  <metadata id="CorelCorpID_0Corel-Layer"/>
  <path class="fil0" d="M287.89 329.86c-6.96,8.06 -14.76,14.55 -23.45,19.43 -8.61,4.89 -17.29,7.31 -25.96,7.31 -9.57,0 -18.84,-2.81 -27.9,-8.34 -9.02,-5.61 -16.32,-14.18 -21.97,-25.76 -5.66,-11.59 -8.46,-24.33 -8.46,-38.17 0,-17.08 4.39,-34.16 13.12,-51.3 8.74,-17.08 19.62,-29.93 32.56,-38.54 12.97,-8.57 25.61,-12.86 37.8,-12.86 9.33,0 18.22,2.41 26.74,7.31 8.45,4.88 15.76,12.35 21.85,22.28l5.66 -24.99 28.67 0 -23.17 108.09c-3.25,15.05 -4.84,23.34 -4.84,24.93 0,2.91 1.11,5.44 3.3,7.53 2.2,2.08 4.88,3.13 7.96,3.13 5.72,0 13.18,-3.24 22.41,-9.78 12.24,-8.56 21.97,-20.05 29.1,-34.49 7.15,-14.39 10.71,-29.21 10.71,-44.54 0,-17.89 -4.61,-34.59 -13.78,-50.08 -9.18,-15.54 -22.91,-27.95 -41.13,-37.3 -18.18,-9.27 -38.34,-13.94 -60.36,-13.94 -25.16,0 -48.16,5.88 -68.93,17.58 -20.8,11.75 -36.95,28.56 -48.38,50.46 -11.47,21.92 -17.18,45.42 -17.18,70.52 0,26.25 5.71,48.81 17.13,67.76 11.48,19 28.01,33.02 49.65,42.07 21.63,9.07 45.57,13.57 71.89,13.57 28.17,0 51.72,-4.73 70.72,-14.22 19.01,-9.45 33.23,-20.99 42.68,-34.55l29 0c-5.49,11.25 -14.89,22.79 -28.18,34.49 -13.29,11.69 -29.11,20.98 -47.44,27.79 -18.34,6.81 -40.48,10.22 -66.29,10.22 -23.83,0 -45.8,-3.08 -65.9,-9.17 -20.15,-6.1 -37.3,-15.27 -51.46,-27.52 -14.17,-12.31 -24.82,-26.41 -32.02,-42.34 -9.01,-20.26 -13.51,-42.12 -13.51,-65.57 0,-26.09 5.38,-51.02 16.1,-74.7 13.12,-28.99 31.74,-51.23 55.84,-66.67 24.11,-15.42 53.33,-23.11 87.7,-23.11 26.64,0 50.59,5.44 71.79,16.31 21.2,10.87 37.94,27.07 50.13,48.6 10.45,18.51 15.66,38.66 15.66,60.4 0,31.09 -10.93,58.66 -32.79,82.77 -19.55,21.63 -40.86,32.46 -64.03,32.46 -7.42,0 -13.35,-1.15 -17.91,-3.4 -4.56,-2.25 -7.9,-5.5 -10.05,-9.74 -1.43,-2.68 -2.41,-7.35 -3.08,-13.93zm-78.08 -43.51c0,14.73 3.51,26.15 10.49,34.28 6.98,8.17 14.93,12.24 23.99,12.24 5.99,0 12.31,-1.81 19,-5.38 6.65,-3.62 13.02,-8.95 19.06,-16.04 6.1,-7.07 11.04,-16.09 14.88,-26.96 3.9,-10.87 5.82,-21.79 5.82,-32.79 0,-14.55 -3.62,-25.92 -10.87,-33.93 -7.25,-8.07 -16.09,-12.08 -26.47,-12.08 -6.86,0 -13.35,1.74 -19.45,5.21 -6.04,3.51 -11.91,9.12 -17.61,16.87 -5.67,7.67 -10.28,17.07 -13.68,28.16 -3.47,11.04 -5.16,21.19 -5.16,30.42z"/>
 </g>
</svg>
