<?xml version="1.0" encoding="UTF-8"?>
<!DOCTYPE svg PUBLIC "-//W3C//DTD SVG 1.1//EN" "http://www.w3.org/Graphics/SVG/1.1/DTD/svg11.dtd">
<!-- Creator: CorelDRAW 2018 (64-Bit Evaluation Version) -->
<svg xmlns="http://www.w3.org/2000/svg" xml:space="preserve" width="5.4186mm" height="5.4186mm" version="1.1" style="shape-rendering:geometricPrecision; text-rendering:geometricPrecision; image-rendering:optimizeQuality; fill-rule:evenodd; clip-rule:evenodd"
viewBox="0 0 541.86 541.86"
 xmlns:xlink="http://www.w3.org/1999/xlink">
 <defs>
  <style type="text/css">
   <![CDATA[
    .fil0 {fill:white}
   ]]>
  </style>
 </defs>
 <g id="Layer_x0020_1">
  <metadata id="CorelCorpID_0Corel-Layer"/>
  <path class="fil0" d="M122.93 246.4c0,17.13 6.93,34.58 12.63,45.99 10.18,20.3 22.83,40.17 37.97,57.15 2.58,2.89 7.76,9.58 10.49,11.66 3.06,2.35 4.66,4.25 7.65,6.64 21.59,17.43 36.7,29.44 62.35,41.33 11.5,5.35 31.02,12.21 47.08,10.38 17.03,-1.95 31.8,-7.56 43.9,-14.73 9.67,-5.74 27.47,-20.17 27.47,-31.86 0,-16.71 -3.16,-27.36 -18.02,-37.06 -14.64,-9.55 -44.77,-22.38 -58.5,-2.99 -20.9,29.44 -40.66,22.38 -62.73,1.96 -2.92,-2.67 -4.22,-4.3 -7.42,-6.87 -3.65,-2.89 -23.49,-24.31 -27.51,-30.4 -2.13,-3.25 -3.7,-5.45 -5.29,-9 -6.71,-14.93 0.03,-29.24 11.14,-37.52 10.46,-7.78 16.03,-11.51 16.03,-26.12 0,-13.34 -7.71,-28.36 -13.29,-36.75 -9.62,-14.5 -29.2,-23.65 -44.64,-15.45 -23.37,12.36 -39.31,51.07 -39.31,73.64zm164.44 -123.68l0.04 18.62c0.8,4.03 1.3,1.4 3.54,1.4 22.81,0 43.22,5.4 60.35,16.86 2.82,1.9 5.12,3.4 7.59,5.29 11.72,8.93 22.17,22.3 28.84,35.52 9.35,18.64 10.47,32 10.47,53.15l20.73 0c0,-26.11 -1.52,-38.53 -12.39,-61.99 -4.23,-9.12 -15.29,-24.65 -22.09,-31.5l-7.89 -7.15c-1.85,-1.78 -2.26,-2.1 -4.19,-3.67l-9.05 -6.66c-21.12,-13.28 -43.39,-20.59 -71.66,-20.59 -2.45,0 -1.51,0.43 -4.29,0.72zm73.66 127.64l0 14.64 20.72 0 0.09 -12.95c0,-0.11 -0.12,-2.05 -0.12,-2.07 -0.64,-2.47 0.45,-0.67 -1.32,-2.16 3.53,-10.32 -10.88,-41.32 -19.93,-51.63 -3.94,-4.45 -7.25,-8.65 -11.82,-12.49 -9.67,-8.14 -17.97,-13.08 -30.52,-18.1 -5.47,-2.2 -12.65,-4.03 -19.33,-4.95 -3.56,-0.49 -7.32,-0.49 -11.12,-1.06 -5.71,-0.85 -6.34,0.3 -11.04,0.3l0 20.73c6.75,0 3.91,-1.63 17.7,0.19 14.65,1.89 29.24,8.84 40.02,17.89 11.39,9.61 18.34,21.02 22.99,34.93 1.99,5.9 2.47,10.19 3.68,16.73zm-82.95 -51.46c-0.54,-1.03 0.43,-1.06 -3.52,-1.18 -14.53,-0.54 -10.78,-1.41 -10.78,21.51 4.07,0 0.86,0.23 2.15,-1.13 10.19,2.25 12.75,-1.75 29.08,6.37 8.34,4.16 13.98,9.37 18.98,16.77 6.44,9.55 7.51,15.06 8.57,26.52 0.55,5.96 -0.42,4.46 -0.22,7.28 0.25,3.89 2.24,2.92 6.47,2.85 13.28,-0.23 13.61,1.76 14.61,-3.33 2.58,-13.02 -5.12,-35.6 -13.66,-46.94 -6.11,-8.19 -14.58,-16.32 -24.02,-21.03 -5.56,-2.75 -19.4,-9.43 -27.66,-7.69z"/>
 </g>
</svg>
