<svg width="26" height="26" viewBox="0 0 26 26" fill="none" xmlns="http://www.w3.org/2000/svg">
<g clip-path="url(#clip0_118_2689)">
<path d="M15.4375 4.875C16.804 5.23486 18.0506 5.95097 19.0498 6.9502C20.049 7.94943 20.7651 9.19597 21.125 10.5625" stroke="#43314B" stroke-linecap="round" stroke-linejoin="round"/>
<path d="M14.625 8.125C16.3028 8.57391 17.4261 9.69719 17.875 11.375" stroke="#43314B" stroke-linecap="round" stroke-linejoin="round"/>
<path d="M15.8834 15.5737C15.9959 15.4988 16.1253 15.4532 16.2599 15.4409C16.3945 15.4287 16.53 15.4502 16.6542 15.5036L21.4439 17.6496C21.6053 17.7186 21.7401 17.838 21.8279 17.99C21.9158 18.1419 21.9521 18.3183 21.9314 18.4926C21.7736 19.6718 21.1929 20.7535 20.2973 21.5366C19.4017 22.3198 18.2522 22.751 17.0625 22.7501C13.3992 22.7501 9.88594 21.2948 7.29559 18.7045C4.70524 16.1141 3.25 12.6009 3.25 8.93757C3.24909 7.74787 3.6803 6.59833 4.46343 5.70274C5.24656 4.80714 6.32831 4.22645 7.5075 4.06866C7.68182 4.04795 7.85815 4.08426 8.01011 4.17214C8.16207 4.26002 8.28148 4.39475 8.35047 4.55616L10.4965 9.34991C10.5492 9.47304 10.5707 9.60728 10.559 9.74071C10.5473 9.87414 10.5028 10.0026 10.4295 10.1147L8.25906 12.6954C8.18208 12.8116 8.13655 12.9457 8.12694 13.0847C8.11732 13.2238 8.14395 13.3629 8.20422 13.4886C9.04414 15.208 10.8215 16.9641 12.546 17.7959C12.6723 17.8559 12.8121 17.8819 12.9516 17.8714C13.091 17.8609 13.2253 17.8142 13.3413 17.7359L15.8834 15.5737Z" stroke="#43314B" stroke-linecap="round" stroke-linejoin="round"/>
</g>
<defs>
<clipPath id="clip0_118_2689">
<rect width="26" height="26" fill="white"/>
</clipPath>
</defs>
</svg>
