<svg width="27" height="27" viewBox="0 0 27 27" fill="none" xmlns="http://www.w3.org/2000/svg">
<g clip-path="url(#clip0_722_44)">
<path d="M22.7812 13.5V18.5625" stroke="#43314B" stroke-linecap="round" stroke-linejoin="round"/>
<path d="M20.25 16.0312H25.3125" stroke="#43314B" stroke-linecap="round" stroke-linejoin="round"/>
<path d="M8.4375 4.21875V9.28125" stroke="#43314B" stroke-linecap="round" stroke-linejoin="round"/>
<path d="M5.90625 6.75H10.9688" stroke="#43314B" stroke-linecap="round" stroke-linejoin="round"/>
<path d="M17.7188 19.4062V22.7812" stroke="#43314B" stroke-linecap="round" stroke-linejoin="round"/>
<path d="M16.0312 21.0938H19.4062" stroke="#43314B" stroke-linecap="round" stroke-linejoin="round"/>
<path d="M15.1875 8.4375L18.5625 11.8125" stroke="#43314B" stroke-linecap="round" stroke-linejoin="round"/>
<path d="M19.1591 4.46595L4.46576 19.1592C4.13626 19.4887 4.13626 20.023 4.46576 20.3525L6.64716 22.5339C6.97666 22.8634 7.5109 22.8634 7.8404 22.5339L22.5337 7.84058C22.8632 7.51108 22.8632 6.97685 22.5337 6.64734L20.3523 4.46595C20.0228 4.13644 19.4886 4.13644 19.1591 4.46595Z" stroke="#43314B" stroke-linecap="round" stroke-linejoin="round"/>
</g>
<defs>
<clipPath id="clip0_722_44">
<rect width="27" height="27" fill="white"/>
</clipPath>
</defs>
</svg>
