<svg width="20" height="19" viewBox="0 0 20 19" fill="none" xmlns="http://www.w3.org/2000/svg">
<path d="M1 1H2.76908C3.55882 1 3.95369 1 4.25097 1.20592C4.54825 1.41185 4.67311 1.77187 4.92285 2.4919L5.54054 4.27281" stroke="white" stroke-linecap="round"/>
<path d="M16.8917 15.182H6.16575C5.99979 15.182 5.91683 15.182 5.85387 15.1752C5.18688 15.1034 4.72996 14.4942 4.87004 13.8634C4.88325 13.8038 4.9095 13.7282 4.96197 13.5769C5.02024 13.4089 5.04937 13.3249 5.08156 13.2508C5.41107 12.492 6.15651 11.9755 7.0098 11.9151C7.09314 11.9092 7.18527 11.9092 7.36951 11.9092H13.4863" stroke="white" stroke-linecap="round" stroke-linejoin="round"/>
<path d="M13.1217 11.9095H9.66963C8.21752 11.9095 7.49148 11.9095 6.92284 11.5492C6.35421 11.1888 6.06821 10.5475 5.49619 9.26474L5.30456 8.83502C4.38568 6.7744 3.92624 5.74411 4.43093 5.00852C4.93561 4.27295 6.10195 4.27295 8.4346 4.27295H14.4291C17.0388 4.27295 18.3436 4.27295 18.8358 5.088C19.328 5.90305 18.6805 6.99188 17.3858 9.16951L17.064 9.71083C16.4261 10.7835 16.1072 11.32 15.5787 11.6147C15.0502 11.9095 14.4073 11.9095 13.1217 11.9095Z" stroke="white" stroke-linecap="round"/>
<path d="M16.3236 19.0007C16.9505 19.0007 17.4587 18.5123 17.4587 17.9098C17.4587 17.3073 16.9505 16.8188 16.3236 16.8188C15.6967 16.8188 15.1885 17.3073 15.1885 17.9098C15.1885 18.5123 15.6967 19.0007 16.3236 19.0007Z" fill="white"/>
<path d="M7.24353 19.0002C7.87045 19.0002 8.37867 18.5118 8.37867 17.9093C8.37867 17.3068 7.87045 16.8184 7.24353 16.8184C6.61662 16.8184 6.1084 17.3068 6.1084 17.9093C6.1084 18.5118 6.61662 19.0002 7.24353 19.0002Z" fill="white"/>
</svg>
