<?xml version="1.0" encoding="UTF-8"?>
<!DOCTYPE svg PUBLIC "-//W3C//DTD SVG 1.1//EN" "http://www.w3.org/Graphics/SVG/1.1/DTD/svg11.dtd">
<!-- Creator: CorelDRAW 2018 (64-Bit Evaluation Version) -->
<svg xmlns="http://www.w3.org/2000/svg" xml:space="preserve" width="5.4186mm" height="5.4186mm" version="1.1" style="shape-rendering:geometricPrecision; text-rendering:geometricPrecision; image-rendering:optimizeQuality; fill-rule:evenodd; clip-rule:evenodd"
viewBox="0 0 541.86 541.86"
 xmlns:xlink="http://www.w3.org/1999/xlink">
 <defs>
  <style type="text/css">
   <![CDATA[
    .fil0 {fill:white}
   ]]>
  </style>
 </defs>
 <g id="Layer_x0020_1">
  <metadata id="CorelCorpID_0Corel-Layer"/>
  <g id="_2089157540640">
   <path class="fil0" d="M324.83 166.07l-20.68 8.12c-1.96,0.76 -3.28,1.14 -5.19,1.92 -0.92,0.37 -1.81,0.63 -2.39,0.82 -2.35,0.78 -8.45,3.92 -12.77,4.92 -0.08,0.06 -0.21,0.03 -0.25,0.15l-0.79 0.39c-0.53,0.22 -0.93,0.31 -1.48,0.5l-22.74 8.81c-7.7,3.44 -23.41,8.83 -31.84,12.16l-24.95 9.55 -28.06 10.99c-5.61,2.26 -11.8,4.16 -17.38,6.68l-7.14 2.73c-1.49,0.63 -1.89,0.89 -3.63,1.38 -0.1,0.03 -0.57,0.16 -0.65,0.19 -0.05,0.02 -0.15,0.07 -0.2,0.09l-19.69 7.7c-2.45,0.93 -4.82,1.67 -7.14,2.72 -2.44,1.1 -4.46,1.83 -7.06,2.8l-9.98 3.83c-5.69,2.25 -11.37,3.92 -16.61,7.06 -5.78,3.48 -11.99,9.22 -6.57,16l1.2 1.18c5.82,4.97 20.95,8.03 29.08,10.76 4.94,1.66 9.65,2.94 14.69,4.63l19.12 6.19c0.05,0.02 0.16,0.06 0.21,0.07l16.98 5.17c4.46,1.27 5.54,3.02 8.83,0.88l14.81 -9.25c0.42,-0.28 0.23,-0.16 0.71,-0.48 5.05,-3.35 23.54,-15.23 28.08,-17.67 1.6,-0.85 1.75,-1.15 3.1,-2.04l5.91 -3.49c0.04,-0.02 0.14,-0.07 0.18,-0.1 0.04,-0.02 0.14,-0.08 0.18,-0.11l8.03 -5.27c11.09,-6.64 21.88,-13.87 32.88,-20.77l24.07 -14.98c2.08,-1.34 3.92,-2.59 6.01,-3.88l18.42 -11.53c0.07,-0.05 0.17,-0.11 0.24,-0.16l13.27 -8.42c1.02,-0.67 2.15,-1.34 3.18,-1.95l18.13 -11.46c2.76,-1.86 10.6,-6.75 13.8,-1.97 -0.59,2.52 -2.79,4.67 -4.84,6.16l-2.55 2.22c-0.45,0.45 -0.56,0.51 -1.04,0.94 -0.06,0.05 -0.15,0.12 -0.21,0.18l-7.43 6.77c-1.54,1.56 -2.79,2.36 -4.34,3.94l-15.2 13.6c-0.82,0.79 -1.32,1.44 -2.16,2.18l-2.63 2.11c-0.34,0.35 -0.2,0.24 -0.57,0.61 -0.28,0.29 -0.2,0.23 -0.59,0.59l-27.08 24.21c-0.95,1.42 -1.6,1.86 -2.81,2.71l-2.1 1.85c-0.06,0.05 -0.15,0.13 -0.2,0.18l-6.63 6c-0.76,0.71 -1.2,1.26 -1.96,1.99l-23.71 21.25c-0.09,0.08 -0.34,0.29 -0.43,0.37 -0.06,0.05 -0.14,0.13 -0.2,0.18 -0.06,0.06 -0.15,0.14 -0.21,0.19l-5.08 4.78c-1.67,1.34 -2.53,2.35 -4.23,3.66l-8.06 7.33c-0.06,0.05 -0.15,0.13 -0.21,0.18l-23.76 21.61c-0.77,1.15 -0.84,4.72 -0.92,6.6l-1.38 20.32c-0.54,2.59 -1.54,27.71 -2.24,32.84l-1.47 21.01c8.49,0 11.99,-3.89 16.27,-8.18 2.18,-2.18 4.13,-3.73 6.32,-5.92 1.88,-1.89 4.19,-4.51 6.15,-6.07 2.63,-2.1 8.55,-8.3 12.59,-11.87l12.71 -12.14 4.81 3.48c0.07,0.05 0.17,0.11 0.23,0.16l26.52 19.64 46.89 34.65c0.05,0.02 0.15,0.08 0.19,0.1l6.82 2.87c5.95,1.87 10.47,1.18 14.46,-2 0.44,-0.35 0.74,-0.6 1.07,-0.91 0.4,-0.36 0.83,-0.76 1.17,-1.2 0.05,-0.07 0.11,-0.16 0.16,-0.23l0.74 -1.24c4.69,-7.74 4.61,-12.53 6.43,-20.78 0,-0.01 0.23,-0.94 0.24,-0.95l0.33 -0.85c0.15,-1.8 0.77,-4.12 1.09,-5.61l25.92 -122.07c1.28,-7.22 3.26,-14.71 4.69,-21.86l3.03 -14.33c0.87,-3.5 1.88,-10.28 3.19,-15.17l4.12 -19.94c1.71,-7.73 3.29,-15.22 4.81,-22.81 1.36,-6.85 4.28,-15.7 2.93,-23.64 -0.32,-1.89 -1.29,-5.21 -2.29,-6.79 -2.24,-3.57 -6.78,-6.3 -11.19,-6.54 -7.98,-0.42 -22.73,7.24 -30.43,9.8 -8.63,2.87 -20.79,8.17 -29.59,11.43l-14.82 5.7c-1.5,0.63 -3.74,1.51 -5.24,1.85z"/>
   <polygon class="fil0" points="324.83,166.07 324.83,165.68 324.37,166.01 "/>
   <polygon class="fil0" points="290.11,254.44 290.11,254.04 289.65,254.37 "/>
   <polygon class="fil0" points="368.61,396.05 368.61,396.45 369.07,396.12 "/>
   <polygon class="fil0" points="290.11,386.59 289.72,386.59 290.05,387.05 "/>
   <polygon class="fil0" points="283.8,181.85 283.8,181.46 283.34,181.79 "/>
   <polygon class="fil0" points="201.75,213.41 201.75,213.02 201.29,213.35 "/>
  </g>
 </g>
</svg>
