<?xml version="1.0" encoding="UTF-8"?>
<!DOCTYPE svg PUBLIC "-//W3C//DTD SVG 1.1//EN" "http://www.w3.org/Graphics/SVG/1.1/DTD/svg11.dtd">
<!-- Creator: CorelDRAW 2018 (64-Bit Evaluation Version) -->
<svg xmlns="http://www.w3.org/2000/svg" xml:space="preserve" width="5.4186mm" height="5.4186mm" version="1.1" style="shape-rendering:geometricPrecision; text-rendering:geometricPrecision; image-rendering:optimizeQuality; fill-rule:evenodd; clip-rule:evenodd"
viewBox="0 0 541.86 541.86"
 xmlns:xlink="http://www.w3.org/1999/xlink">
 <defs>
  <style type="text/css">
   <![CDATA[
    .fil0 {fill:white}
   ]]>
  </style>
 </defs>
 <g id="Layer_x0020_1">
  <metadata id="CorelCorpID_0Corel-Layer"/>
  <path id="vk.svg" class="fil0" d="M442.15 178.81c2.46,-8.33 0,-14.45 -11.86,-14.45l-39.23 0c-9.99,0 -14.58,5.26 -17.05,11.12 0,0 -19.98,48.69 -48.22,80.26 -9.13,9.13 -13.32,12.06 -18.32,12.06 -2.46,0 -6.26,-2.93 -6.26,-11.26l0 -77.73c0,-9.99 -2.8,-14.45 -11.06,-14.45l-61.68 0c-6.26,0 -9.99,4.66 -9.99,8.99 0,9.46 14.12,11.65 15.59,38.3l0 57.81c0,12.66 -2.26,14.99 -7.26,14.99 -13.32,0 -45.69,-48.89 -64.88,-104.84 -3.86,-10.86 -7.66,-15.25 -17.71,-15.25l-39.23 0c-11.19,0 -13.46,5.26 -13.46,11.12 0,10.39 13.32,62.01 62.01,130.22 32.44,46.55 78.13,71.8 119.69,71.8 24.98,0 28.05,-5.6 28.05,-15.25 0,-44.5 -2.27,-48.69 10.25,-48.69 5.8,0 15.79,2.93 39.1,25.37 26.64,26.65 31.04,38.57 45.96,38.57l39.23 0c11.19,0 16.85,-5.6 13.59,-16.65 -7.46,-23.25 -57.88,-71.07 -60.15,-74.27 -5.79,-7.46 -4.13,-10.79 0,-17.45 0.07,-0.07 47.96,-67.47 52.89,-90.32z"/>
 </g>
</svg>
