<svg width="102" height="102" viewBox="0 0 102 102" fill="none" xmlns="http://www.w3.org/2000/svg">
<path d="M51 0C22.8334 0 0 22.8334 0 51C0 79.1666 22.8334 102 51 102C79.1666 102 102 79.1666 102 51C102 22.8334 79.1666 0 51 0ZM44.719 22.4294C44.719 20.7696 45.3784 19.1778 46.552 18.0041C47.7257 16.8304 49.3175 16.1711 50.9773 16.1711C52.6371 16.1711 54.229 16.8304 55.4026 18.0041C56.5763 19.1778 57.2356 20.7696 57.2357 22.4294V58.6642C57.2356 60.324 56.5763 61.9158 55.4026 63.0895C54.229 64.2631 52.6371 64.9225 50.9773 64.9225C49.3175 64.9225 47.7257 64.2631 46.552 63.0895C45.3784 61.9158 44.719 60.324 44.719 58.6642V22.4294ZM56.4874 83.5387C55.2217 84.7872 53.5627 85.5587 51.7924 85.722C50.0222 85.8853 48.25 85.4304 46.7773 84.4346C45.3046 83.4388 44.2223 81.9637 43.7144 80.26C43.2066 78.5563 43.3046 76.7293 43.9917 75.0897C44.6789 73.4501 45.9128 72.0991 47.4835 71.2665C49.0543 70.434 50.8649 70.1712 52.6076 70.5229C54.3502 70.8747 55.9172 71.8192 57.042 73.1958C58.1669 74.5725 58.7802 76.2963 58.7776 78.074C58.7861 79.0926 58.5875 80.1022 58.1938 81.0416C57.8001 81.981 57.2195 82.8306 56.4874 83.5387Z" fill="#E3E3E3"/>
</svg>
