<svg width="42" height="42" viewBox="0 0 42 42" fill="none" xmlns="http://www.w3.org/2000/svg">
<circle cx="21" cy="21" r="20.5" stroke="#00BFFF"/>
<g clip-path="url(#clip0_79_1515)">
<path d="M28.875 21C29.9105 21 30.75 20.1605 30.75 19.125C30.75 18.0895 29.9105 17.25 28.875 17.25C27.8395 17.25 27 18.0895 27 19.125C27 20.1605 27.8395 21 28.875 21Z" stroke="#00BFFF" stroke-linecap="round" stroke-linejoin="round"/>
<path d="M13.125 21C14.1605 21 15 20.1605 15 19.125C15 18.0895 14.1605 17.25 13.125 17.25C12.0895 17.25 11.25 18.0895 11.25 19.125C11.25 20.1605 12.0895 21 13.125 21Z" stroke="#00BFFF" stroke-linecap="round" stroke-linejoin="round"/>
<path d="M17.625 16.5C18.6605 16.5 19.5 15.6605 19.5 14.625C19.5 13.5895 18.6605 12.75 17.625 12.75C16.5895 12.75 15.75 13.5895 15.75 14.625C15.75 15.6605 16.5895 16.5 17.625 16.5Z" stroke="#00BFFF" stroke-linecap="round" stroke-linejoin="round"/>
<path d="M24.375 16.5C25.4105 16.5 26.25 15.6605 26.25 14.625C26.25 13.5895 25.4105 12.75 24.375 12.75C23.3395 12.75 22.5 13.5895 22.5 14.625C22.5 15.6605 23.3395 16.5 24.375 16.5Z" stroke="#00BFFF" stroke-linecap="round" stroke-linejoin="round"/>
<path d="M21 18.75C20.2686 18.7503 19.5571 18.9881 18.9726 19.4277C18.3881 19.8673 17.9622 20.4849 17.7591 21.1875C17.4589 22.2209 16.7623 23.0937 15.8212 23.6156C15.1381 23.9799 14.6222 24.5941 14.3814 25.33C14.1407 26.0658 14.1937 26.8662 14.5295 27.5638C14.8652 28.2614 15.4576 28.8022 16.1829 29.0732C16.9081 29.3441 17.71 29.3241 18.4209 29.0175C20.0729 28.3402 21.9252 28.3402 23.5772 29.0175C24.2881 29.3241 25.09 29.3441 25.8152 29.0732C26.5405 28.8022 27.1329 28.2614 27.4687 27.5638C27.8044 26.8662 27.8574 26.0658 27.6167 25.33C27.3759 24.5941 26.86 23.9799 26.1769 23.6156C25.2363 23.0936 24.5404 22.2207 24.2409 21.1875C24.0378 20.4849 23.6119 19.8673 23.0274 19.4277C22.4429 18.9881 21.7314 18.7503 21 18.75Z" stroke="#00BFFF" stroke-linecap="round" stroke-linejoin="round"/>
</g>
<defs>
<clipPath id="clip0_79_1515">
<rect width="24" height="24" fill="white" transform="translate(9 9)"/>
</clipPath>
</defs>
</svg>
