<?xml version="1.0" encoding="UTF-8"?>
<!DOCTYPE svg PUBLIC "-//W3C//DTD SVG 1.1//EN" "http://www.w3.org/Graphics/SVG/1.1/DTD/svg11.dtd">
<!-- Creator: CorelDRAW 2018 (64-Bit Evaluation Version) -->
<svg xmlns="http://www.w3.org/2000/svg" xml:space="preserve" width="287mm" height="90mm" version="1.1" style="shape-rendering:geometricPrecision; text-rendering:geometricPrecision; image-rendering:optimizeQuality; fill-rule:evenodd; clip-rule:evenodd"
viewBox="0 0 28700 9000"
 xmlns:xlink="http://www.w3.org/1999/xlink">
 <defs>
  <style type="text/css">
   <![CDATA[
    .fil0 {fill:#462F56}
    .fil1 {fill:#462F56;fill-rule:nonzero}
   ]]>
  </style>
 </defs>
 <g id="Layer_x0020_1">
  <metadata id="CorelCorpID_0Corel-Layer"/>
  <g id="_2140897791216">
   <path class="fil0" d="M4498.05 100.99c1640.03,0 3070.21,897.53 3826.68,2228.15 -723.63,-1157.03 -2008.99,-1926.79 -3474.32,-1926.79 -842.77,0 -1625.85,254.76 -2276.99,691.28 327.36,-5.73 667.52,-12.99 985.2,3.01 486.58,-230.85 1030.79,-359.99 1605.16,-359.99 2071.53,0 3750.83,1679.33 3750.83,3750.89 0,189.18 -14.16,375.11 -41.2,556.82 -230.89,2221.04 -2300.9,3350.46 -3743.4,3350.49 -2640.82,0.08 -4322.21,-2361.12 -3929.63,-4008.8 79.76,-334.76 314.16,-558.61 720.68,-707.22 -271.85,-329.67 -472.29,-745.76 -618.14,-1227.89 -348.19,602.1 -547.68,1301.09 -547.68,2046.63 0,2261.77 1833.51,4095.22 4095.17,4095.22 1482.55,0 2781.01,-787.82 3499.81,-1967.61 -749.45,1355.63 -2193.51,2273.82 -3852.17,2273.82 -2429.46,0 -4398.97,-1969.53 -4398.97,-4399.04 0,-1073.61 384.56,-2057.32 1023.55,-2820.98 -44.28,-252.19 -78.67,-516.36 -104.68,-790.51 139.61,122.93 393.02,176.22 706.52,197.35 756.83,-615.59 1721.96,-984.83 2773.58,-984.83zm1998.76 3144.17c81.09,-214.43 147.16,-338.37 182.93,-566.37 -204.54,550.64 -390.61,776.44 -810.72,1127.18 -221.08,133.64 -578.46,405.92 -875.34,746.35 -197.54,-413.16 -472.61,-712.94 -799.54,-986.53 -339.97,-205.43 -723.25,-806.48 -1090.64,-1795.75 64.14,409.73 133.81,817.82 279.52,1203.06 -469.79,-265.42 -1003.29,-667.47 -1586.52,-1175.96 616.37,665.16 1324.2,1257.15 2102.58,1792.63 -536.61,-161.39 -1090.07,-236.76 -1683.39,-106.36 1306.24,36.25 2310.7,352.58 2630.63,1250.83 -200.5,268.62 -348.79,568.21 -364.36,869.76 -1819.69,-130.12 -3213.61,-629.13 -3194.47,-1173.71 8.49,-239.66 289.4,-451.33 756.75,-613.26 490.13,508.74 1187.02,767.49 2169.67,680.49 -854.07,-37.51 -1492.33,-298.78 -1947.45,-749.78l4.01 -1.19c-45.05,-43.69 -88.33,-89.12 -129.77,-136.41l-1.95 0.48c-474.7,-551.42 -719.35,-1341.28 -780.58,-2321.16 825.95,111.35 904.54,74.14 1779.07,39.65 1461.09,-13.29 2508.13,770.92 1781.51,2621.59 121.2,-147.01 216.36,-298.12 288.39,-450.34 188.7,9.32 373.44,22.69 553.49,39.7 1.92,46.35 5.26,93.91 10.27,142.81 1.44,-48.22 4.18,-95.24 8.17,-141.08l8.05 0.76c4.45,-42.55 9.82,-84.01 16.17,-124.5l-9.88 -0.55c101.7,-707.14 526.78,-1110.79 1194.49,-1286.66l2.03 2.09c175.06,-45.59 367.96,-75.64 578.35,-91.47 -56.11,465.72 -34.41,511.28 -8.05,1005.78 5.5,240.96 -27.58,462.47 -103.11,645.85 -21.1,46.46 -43.77,91.04 -68.56,133.32l1.68 0.47c-213.18,354.64 -633.73,504.01 -1303.55,251.64 568.64,455.85 1233.96,244.59 1482.14,-198.46 106.28,33.57 206.35,68.72 299.5,105.44 17.88,139.39 27.07,281.58 27.07,425.88 0,328.23 -47.73,645.34 -136.44,944.77 -614.83,182.41 -1489.22,288.58 -2470.57,280.06 -40.35,-335 -108.88,-618.46 -201.33,-864.38 481.15,-660.9 1393.21,-1216.8 2071.66,-1105.94 -330.31,-72.51 -665.16,-76.69 -963.88,13.16 433.26,-298.08 667.28,-584.54 946.58,-1070.25 -324.65,283.05 -383.17,488.67 -644.61,636.36zm-1738.69 2375.57c0.06,-189.54 60.53,-390.2 165.08,-588.06 30.51,179.28 38.89,377.37 22.78,596.03l-0.68 0c-62.75,-2.25 -125.18,-4.91 -187.18,-7.97zm2937.68 -2345.63c-5.18,153.44 -19.8,298.07 -52.5,421.79l-3.42 12.04c67.17,20.53 131.91,41.87 194.23,64.22 -33.36,-171.07 -79.79,-337.48 -138.31,-498.05zm-1936.99 140.59c11.96,-755.28 447.61,-1169.94 1123.32,-1391.73 -597.31,-577.26 -1410.44,-932.5 -2306.66,-932.5 -193.85,0 -383.79,16.59 -568.53,48.54 97.33,15.16 190.35,34.28 277.11,58.52 826.25,230.93 1363.32,1225.81 967.19,2201.74 173.92,1.81 343.25,7.05 507.57,15.43zm-4121.85 1658.25c116.99,97.15 249.25,122.96 382.44,147.21 87.97,1030.05 675.36,1634.17 1316.98,2191.94 -920.25,-516.38 -1516.37,-1271.91 -1699.42,-2339.15z"/>
   <polygon class="fil1" points="10154.22,3580.68 10502.38,3580.68 11333,4840.31 11333,3580.68 11698.16,3580.68 11698.16,5494.76 11347.24,5494.76 10519.38,4239.12 10519.38,5494.76 10154.22,5494.76 "/>
   <path class="fil1" d="M13152.56 4079.17l357.06 0 0 1415.59 -357.06 0 0 -150.65c-69.83,65.76 -140.04,112.87 -210.37,141.75 -70.21,28.86 -146.77,43.53 -228.64,43.53 -184.85,0 -344.15,-70.62 -478.85,-212.37 -134.7,-141.27 -201.77,-317.25 -201.77,-527.4 0,-218.15 65.25,-396.73 195.56,-536.29 130.2,-139.07 288.14,-208.82 474.24,-208.82 85.99,0 166.08,16.03 241.28,47.54 75.2,31.57 144.55,79.57 208.55,142.62l0 -155.5zm-376.36 290.59c-110.98,0 -203.21,38.64 -276.11,116.39 -73.38,77.32 -110.1,176.85 -110.1,298.13 0,122.2 37.1,222.62 111.84,301.7 74.79,78.62 166.54,118.16 275.72,118.16 112.3,0 205.87,-38.64 279.74,-116.39 74.23,-77.29 111.35,-179.02 111.35,-304.77 0,-123.07 -37.12,-222.63 -111.35,-299.05 -73.87,-75.94 -167.9,-114.17 -281.09,-114.17z"/>
   <polygon class="fil1" points="13912.89,3556.68 14270.02,3556.68 14270.02,4079.17 14482.13,4079.17 14482.13,4385.78 14270.02,4385.78 14270.02,5494.76 13912.89,5494.76 13912.89,4385.78 13730.24,4385.78 13730.24,4079.17 13912.89,4079.17 "/>
   <path class="fil1" d="M14675 4079.17l362.51 0 0 680.67c0,132.4 9.36,224.42 27.74,275.92 18.36,51.55 47.84,91.53 88.6,120.41 40.74,28.48 91.26,42.69 150.87,42.69 59.5,0 110.48,-14.21 152.11,-42.23 41.63,-28.01 72.44,-69.32 92.62,-123.94 14.72,-40.92 22.37,-128 22.37,-261.27l0 -692.25 357.16 0 0 598.94c0,247.03 -19.71,415.87 -59.14,506.94 -47.81,111.11 -119,195.94 -212.49,255.47 -93.56,59.09 -212.56,88.87 -356.75,88.87 -156.62,0 -282.81,-34.63 -379.43,-103.95 -96.74,-69.34 -164.65,-165.76 -204.08,-289.72 -28.2,-85.72 -42.09,-241.69 -42.09,-467.81l0 -588.74z"/>
   <path class="fil1" d="M16203.27 4079.17l308.81 0 0 179.96c33.12,-70.18 76.94,-123.53 131.56,-159.95 55.03,-36.45 114.99,-54.67 179.86,-54.67 46.13,0 94.43,12.01 145.03,36.48l-110.97 306.56c-41.6,-20.91 -76.04,-31.14 -102.95,-31.14 -54.62,0 -101.13,33.77 -138.71,101.32 -38.08,67.53 -56.82,199.93 -56.82,397.22l1.33 68.89 0 570.92 -357.14 0 0 -1415.59z"/>
   <path class="fil1" d="M18200.6 4079.17l357.06 0 0 1415.59 -357.06 0 0 -150.65c-69.83,65.76 -140.07,112.87 -210.36,141.75 -70.24,28.86 -146.77,43.53 -228.68,43.53 -184.82,0 -344.22,-70.62 -478.82,-212.37 -134.81,-141.27 -201.88,-317.25 -201.88,-527.4 0,-218.15 65.36,-396.73 195.56,-536.29 130.2,-139.07 288.15,-208.82 474.43,-208.82 85.92,0 166,16.03 241.2,47.54 75.1,31.57 144.55,79.57 208.55,142.62l0 -155.5zm-376.47 290.59c-110.87,0 -203.1,38.64 -276.11,116.39 -73.38,77.32 -110.02,176.85 -110.02,298.13 0,122.2 37.13,222.62 111.84,301.7 74.72,78.62 166.49,118.16 275.65,118.16 112.41,0 205.89,-38.64 279.73,-116.39 74.34,-77.29 111.47,-179.02 111.47,-304.77 0,-123.07 -37.13,-222.63 -111.47,-299.05 -73.84,-75.94 -167.81,-114.17 -281.09,-114.17z"/>
   <path class="fil1" d="M18955.45 3580.68l389.87 0c210.78,0 362.51,19.1 455.58,57.74 93.11,38.65 166.87,101.32 220.62,187.53 53.67,86.19 80.57,189.7 80.57,310.58 0,133.7 -35.31,244.78 -106.11,333.19 -70.22,88.44 -165.98,150.19 -287.28,184.85 -71.19,19.98 -200.55,29.75 -387.98,29.75l0 810.44 -365.27 0 0 -1914.08zm365.27 749.07l117.7 0c92.59,0 156.62,-6.64 192.88,-19.52 36.26,-13.37 64.38,-34.66 85.43,-64.87 20.66,-30.21 30.88,-66.66 30.88,-109.76 0,-74.19 -29.07,-128.41 -87.24,-162.17 -42.09,-25.3 -120.84,-38.21 -235.45,-38.21l-104.2 0 0 394.53z"/>
   <path class="fil1" d="M20424.22 3532.68l357.14 0 0 691.36c69.83,-60.01 139.69,-104.87 210.39,-134.65 70.22,-29.75 141.87,-44.88 213.81,-44.88 141.03,0 260.05,48.44 356.76,145.74 82.77,83.96 123.91,207.49 123.91,370.1l0 934.41 -351.69 0 0 -619.85c0,-163.5 -7.67,-274.53 -23.26,-332.32 -15.68,-58.17 -42.58,-101.27 -80.55,-130.18 -37.59,-28.42 -84.67,-42.65 -140.07,-42.65 -72.14,0 -134.33,24.02 -186.26,71.56 -51.39,47.54 -87.27,112.36 -107.34,194.56 -10.33,42.69 -15.7,139.53 -15.7,291.05l0 567.83 -357.14 0 0 -1962.08z"/>
   <path class="fil1" d="M23088.4 4079.17l357.03 0 0 1415.59 -357.03 0 0 -150.65c-69.84,65.76 -140.08,112.87 -210.4,141.75 -70.21,28.86 -146.74,43.53 -228.64,43.53 -184.85,0 -344.23,-70.62 -478.85,-212.37 -134.71,-141.27 -201.85,-317.25 -201.85,-527.4 0,-218.15 65.33,-396.73 195.53,-536.29 130.23,-139.07 288.28,-208.82 474.45,-208.82 85.92,0 165.98,16.03 241.18,47.54 75.12,31.57 144.57,79.57 208.58,142.62l0 -155.5zm-376.48 290.59c-110.89,0 -203.1,38.64 -276.1,116.39 -73.39,77.32 -110.03,176.85 -110.03,298.13 0,122.2 37.13,222.62 111.84,301.7 74.72,78.62 166.46,118.16 275.62,118.16 112.44,0 205.89,-38.64 279.77,-116.39 74.33,-77.29 111.43,-179.02 111.43,-304.77 0,-123.07 -37.1,-222.63 -111.43,-299.05 -73.88,-75.94 -167.82,-114.17 -281.1,-114.17z"/>
   <path class="fil1" d="M23722.51 4079.17l308.73 0 0 179.96c33.19,-70.18 77.02,-123.53 131.63,-159.95 55.03,-36.45 115.02,-54.67 179.86,-54.67 46.13,0 94.43,12.01 144.96,36.48l-110.9 306.56c-41.71,-20.91 -76.04,-31.14 -103.02,-31.14 -54.54,0 -101.13,33.77 -138.64,101.32 -38.07,67.53 -56.81,199.93 -56.81,397.22l1.32 68.89 0 570.92 -357.13 0 0 -1415.59z"/>
   <path class="fil1" d="M24661.82 4079.17l357.14 0 0 165.32c61.32,-67.12 129.33,-117.32 204.54,-150.22 74.71,-33.3 156.61,-49.76 245.21,-49.76 89.06,0 170.01,21.78 241.66,65.36 72.03,43.5 129.74,107.47 173.65,191 56.82,-83.53 126.57,-147.5 209.42,-191 82.77,-43.58 173.64,-65.36 271.63,-65.36 101.59,0 191.14,23.57 268.05,70.21 77.4,46.65 132.5,107.97 166.49,183.06 33.57,75.53 50.6,198.16 50.6,367.88l0 829.1 -357.14 0 0 -715.34c0,-159.95 -20.2,-268.37 -60.85,-324.81 -40.76,-56.43 -102.08,-84.85 -183.01,-84.85 -62.21,0 -117.78,17.32 -166.57,52.01 -49.19,34.2 -85.83,82.17 -109.64,143.03 -23.65,60.91 -35.69,158.62 -35.69,293.7l0 636.26 -357.25 0 0 -682.93c0,-126.19 -9.35,-217.69 -28.61,-274.12 -18.74,-56.85 -47.43,-98.64 -85.04,-126.62 -37.97,-27.56 -84.1,-41.33 -137.77,-41.33 -59.99,0 -114.61,17.32 -163.4,52.42 -49.17,35.09 -85.45,83.99 -110.02,147.07 -24.22,63.08 -36.26,162.61 -36.26,298.15l0 627.36 -357.14 0 0 -1415.59z"/>
   <path class="fil1" d="M28243.78 4079.17l357.14 0 0 1415.59 -357.14 0 0 -150.65c-69.86,65.76 -140.07,112.87 -210.4,141.75 -70.21,28.86 -146.77,43.53 -228.64,43.53 -184.85,0 -344.15,-70.62 -478.85,-212.37 -134.7,-141.27 -201.77,-317.25 -201.77,-527.4 0,-218.15 65.25,-396.73 195.45,-536.29 130.31,-139.07 288.25,-208.82 474.46,-208.82 85.88,0 165.97,16.03 241.17,47.54 75.2,31.57 144.58,79.57 208.58,142.62l0 -155.5zm-376.39 290.59c-110.98,0 -203.21,38.64 -276.11,116.39 -73.39,77.32 -110.11,176.85 -110.11,298.13 0,122.2 37.1,222.62 111.93,301.7 74.71,78.62 166.38,118.16 275.64,118.16 112.3,0 205.89,-38.64 279.74,-116.39 74.25,-77.29 111.35,-179.02 111.35,-304.77 0,-123.07 -37.1,-222.63 -111.35,-299.05 -73.85,-75.94 -167.9,-114.17 -281.09,-114.17z"/>
  </g>
 </g>
</svg>
