<svg width="154" height="48" viewBox="0 0 154 48" fill="none" xmlns="http://www.w3.org/2000/svg">
<g clip-path="url(#clip0_383_128)">
<g clip-path="url(#clip1_383_128)">
<g clip-path="url(#clip2_383_128)">
<path fill-rule="evenodd" clip-rule="evenodd" d="M23.9993 0.538574C32.7461 0.538574 40.3737 5.3254 44.4082 12.422C40.5489 6.25121 33.6936 2.14583 25.8785 2.14583C21.3837 2.14583 17.2073 3.50455 13.7346 5.83265C15.4805 5.80209 17.2947 5.76337 18.989 5.84871C21.5841 4.61751 24.4865 3.92876 27.5498 3.92876C38.598 3.92876 47.5543 12.8852 47.5543 23.9335C47.5543 24.9425 47.4787 25.9341 47.3345 26.9032C46.1031 38.7488 35.063 44.7723 27.3697 44.7725C13.2853 44.7729 4.31793 32.1799 6.41169 23.3922C6.83707 21.6068 8.08721 20.413 10.2553 19.6204C8.80545 17.8622 7.73643 15.643 6.95857 13.0716C5.10155 16.2828 4.03761 20.0108 4.03761 23.987C4.03761 36.0498 13.8163 45.8282 25.8785 45.8282C33.7855 45.8282 40.7106 41.6265 44.5442 35.3343C40.5471 42.5643 32.8455 47.4613 23.9993 47.4613C11.0421 47.4613 0.538086 36.9571 0.538086 23.9997C0.538086 18.2738 2.58907 13.0274 5.99702 8.95452C5.76086 7.60951 5.57745 6.2006 5.43873 4.73847C6.18331 5.39409 7.53483 5.67831 9.20683 5.791C13.2433 2.50785 18.3906 0.538574 23.9993 0.538574ZM34.6593 17.3075C35.0918 16.1639 35.4442 15.5028 35.6349 14.2868C34.5441 17.2236 33.5517 18.4279 31.3111 20.2985C30.132 21.0112 28.226 22.4634 26.6426 24.279C25.5891 22.0755 24.122 20.4767 22.3784 19.0175C20.5652 17.9219 18.5211 14.7163 16.5617 9.44018C16.9037 11.6254 17.2753 13.8019 18.0524 15.8565C15.5469 14.4409 12.7016 12.2967 9.59099 9.58471C12.8783 13.1322 16.6534 16.2895 20.8048 19.1454C17.9428 18.2847 14.991 17.8827 11.8267 18.5781C18.7933 18.7715 24.1504 20.4586 25.8567 25.2492C24.7874 26.6819 23.9965 28.2797 23.9134 29.888C14.2084 29.194 6.77419 26.5326 6.87627 23.6282C6.92155 22.35 8.41974 21.2211 10.9123 20.3575C13.5263 23.0707 17.243 24.4507 22.4839 23.9867C17.9288 23.7867 14.5248 22.3932 12.0974 19.9879L12.1188 19.9816C11.8786 19.7485 11.6477 19.5063 11.4267 19.254L11.4163 19.2566C8.88459 16.3157 7.57979 12.1031 7.25323 6.87708C11.6583 7.47095 12.0774 7.27249 16.7416 7.08855C24.5341 7.01767 30.1183 11.2001 26.243 21.0704C26.8894 20.2863 27.3969 19.4804 27.7811 18.6686C28.7875 18.7183 29.7728 18.7896 30.733 18.8803C30.7433 19.1275 30.7611 19.3811 30.7878 19.6419C30.7955 19.3848 30.8101 19.134 30.8314 18.8895L30.8743 18.8936C30.898 18.6666 30.9267 18.4455 30.9605 18.2296L30.9079 18.2266C31.4503 14.4552 33.7173 12.3024 37.2785 11.3644L37.2893 11.3756C38.2229 11.1324 39.2517 10.9722 40.3738 10.8877C40.0746 13.3716 40.1903 13.6146 40.3309 16.2519C40.3602 17.537 40.1838 18.7184 39.781 19.6964C39.6684 19.9442 39.5475 20.182 39.4153 20.4075L39.4243 20.41C38.2873 22.3014 36.0444 23.098 32.472 21.7521C35.5048 24.1833 39.0531 23.0565 40.3768 20.6936C40.9436 20.8727 41.4773 21.0601 41.9741 21.256C42.0695 21.9994 42.1185 22.7577 42.1185 23.5273C42.1185 25.2779 41.8639 26.9691 41.3908 28.5661C38.1117 29.5389 33.4483 30.1052 28.2144 30.0597C27.9992 28.2731 27.6337 26.7613 27.1406 25.4497C29.7068 21.9249 34.5711 18.9601 38.1895 19.5514C36.4279 19.1647 34.642 19.1424 33.0488 19.6216C35.3595 18.0318 36.6076 16.504 38.0972 13.9136C36.3658 15.4232 36.0537 16.5198 34.6593 17.3075ZM25.3863 29.9772C25.3866 28.9663 25.7091 27.8961 26.2667 26.8409C26.4295 27.797 26.4741 28.8535 26.3882 30.0197H26.3846C26.0499 30.0077 25.717 29.9935 25.3863 29.9772ZM41.0539 17.4672C41.0263 18.2855 40.9483 19.0569 40.7739 19.7167L40.7557 19.7809C41.1139 19.8904 41.4592 20.0042 41.7916 20.1234C41.6137 19.2111 41.366 18.3235 41.0539 17.4672ZM30.7233 18.217C30.7871 14.1888 33.1106 11.9773 36.7144 10.7944C33.5287 7.71569 29.192 5.82108 24.4122 5.82108C23.3783 5.82108 22.3653 5.90956 21.38 6.07996C21.8991 6.16081 22.3952 6.26279 22.8579 6.39207C27.2646 7.62369 30.129 12.9297 28.0163 18.1347C28.9439 18.1443 29.8469 18.1723 30.7233 18.217ZM8.74011 27.061C9.36406 27.5791 10.0694 27.7168 10.7798 27.8461C11.249 33.3397 14.3817 36.5617 17.8037 39.5364C12.8957 36.7824 9.71638 32.7529 8.74011 27.061Z" fill="#527B69"/>
<path d="M54.167 19.0967H56.0238L60.4538 25.8147V19.0967H62.4013V29.3051H60.5298L56.1145 22.6084V29.3051H54.167V19.0967Z" fill="#527B69"/>
<path d="M70.1559 21.7557H72.0603V29.3055H70.1559V28.502C69.7835 28.8527 69.4091 29.104 69.034 29.258C68.6595 29.4119 68.2512 29.4902 67.8145 29.4902C66.8287 29.4902 65.9791 29.1135 65.2607 28.3575C64.5423 27.6041 64.1846 26.6655 64.1846 25.5447C64.1846 24.3813 64.5326 23.4288 65.2276 22.6845C65.922 21.9428 66.7643 21.5708 67.7568 21.5708C68.2155 21.5708 68.6426 21.6563 69.0437 21.8243C69.4447 21.9927 69.8146 22.2487 70.1559 22.585V21.7557ZM68.1487 23.3055C67.5568 23.3055 67.0649 23.5115 66.6761 23.9262C66.2847 24.3386 66.0889 24.8694 66.0889 25.5162C66.0889 26.168 66.2868 26.7035 66.6854 27.1253C67.0843 27.5446 67.5736 27.7555 68.1559 27.7555C68.7548 27.7555 69.2539 27.5494 69.6478 27.1347C70.0437 26.7225 70.2417 26.18 70.2417 25.5093C70.2417 24.8529 70.0437 24.3219 69.6478 23.9144C69.2539 23.5094 68.7524 23.3055 68.1487 23.3055Z" fill="#527B69"/>
<path d="M74.2105 18.9688H76.1152V21.7554H77.2464V23.3906H76.1152V29.3052H74.2105V23.3906H73.2363V21.7554H74.2105V18.9688Z" fill="#527B69"/>
<path d="M78.2764 21.7554H80.2098V25.3856C80.2098 26.0917 80.2597 26.5825 80.3577 26.8572C80.4556 27.1321 80.6128 27.3453 80.8302 27.4994C81.0475 27.6513 81.317 27.7271 81.6349 27.7271C81.9522 27.7271 82.2241 27.6513 82.4461 27.5018C82.6682 27.3524 82.8325 27.1321 82.9401 26.8408C83.0186 26.6226 83.0594 26.1581 83.0594 25.4474V21.7554H84.9643V24.9497C84.9643 26.2672 84.8591 27.1677 84.6488 27.6534C84.3939 28.246 84.0142 28.6984 83.5156 29.0159C83.0166 29.3311 82.3819 29.4899 81.6129 29.4899C80.7776 29.4899 80.1046 29.3052 79.5893 28.9355C79.0733 28.5657 78.7111 28.0514 78.5008 27.3903C78.3504 26.9331 78.2764 26.1013 78.2764 24.8953V21.7554Z" fill="#527B69"/>
<path d="M86.4277 21.7557H88.0747V22.7154C88.2514 22.3411 88.4851 22.0566 88.7764 21.8624C89.0699 21.668 89.3897 21.5708 89.7356 21.5708C89.9817 21.5708 90.2393 21.6349 90.5091 21.7654L89.9173 23.4003C89.6954 23.2888 89.5117 23.2343 89.3682 23.2343C89.0769 23.2343 88.8289 23.4144 88.6284 23.7746C88.4253 24.1348 88.3254 24.8409 88.3254 25.8931L88.3325 26.2606V29.3055H86.4277V21.7557Z" fill="#527B69"/>
<path d="M97.0784 21.7557H98.9827V29.3055H97.0784V28.502C96.706 28.8527 96.3314 29.104 95.9565 29.258C95.5819 29.4119 95.1737 29.4902 94.7369 29.4902C93.7511 29.4902 92.901 29.1135 92.1831 28.3575C91.4642 27.6041 91.1064 26.6655 91.1064 25.5447C91.1064 24.3813 91.455 23.4288 92.1494 22.6845C92.8438 21.9428 93.6862 21.5708 94.6797 21.5708C95.138 21.5708 95.5651 21.6563 95.9661 21.8243C96.3667 21.9927 96.7371 22.2487 97.0784 22.585V21.7557ZM95.0706 23.3055C94.4793 23.3055 93.9874 23.5115 93.598 23.9262C93.2066 24.3386 93.0112 24.8694 93.0112 25.5162C93.0112 26.168 93.2092 26.7035 93.6077 27.1253C94.0062 27.5446 94.4956 27.7555 95.0778 27.7555C95.6773 27.7555 96.1759 27.5494 96.5697 27.1347C96.9662 26.7225 97.1642 26.18 97.1642 25.5093C97.1642 24.8529 96.9662 24.3219 96.5697 23.9144C96.1759 23.5094 95.6747 23.3055 95.0706 23.3055Z" fill="#527B69"/>
<path d="M101.105 19.0967H103.185C104.309 19.0967 105.118 19.1985 105.615 19.4046C106.111 19.6108 106.505 19.945 106.791 20.4048C107.077 20.8645 107.221 21.4165 107.221 22.0612C107.221 22.7743 107.033 23.3667 106.655 23.8382C106.28 24.3099 105.77 24.6392 105.123 24.8241C104.743 24.9307 104.053 24.9828 103.054 24.9828V29.3051H101.105V19.0967ZM103.054 23.0917H103.681C104.175 23.0917 104.517 23.0563 104.71 22.9876C104.903 22.9163 105.053 22.8028 105.166 22.6416C105.276 22.4805 105.33 22.2861 105.33 22.0563C105.33 21.6606 105.175 21.3714 104.865 21.1913C104.641 21.0564 104.221 20.9876 103.609 20.9876H103.054V23.0917Z" fill="#527B69"/>
<path d="M108.939 18.8413H110.844V22.5286C111.217 22.2085 111.589 21.9693 111.966 21.8104C112.341 21.6518 112.723 21.5711 113.107 21.5711C113.859 21.5711 114.494 21.8294 115.009 22.3483C115.451 22.7961 115.67 23.455 115.67 24.3222V29.3057H113.794V25.9999C113.794 25.1279 113.754 24.5357 113.67 24.2275C113.587 23.9173 113.443 23.6874 113.241 23.5332C113.04 23.3816 112.789 23.3057 112.494 23.3057C112.109 23.3057 111.777 23.4338 111.5 23.6874C111.226 23.9409 111.035 24.2866 110.928 24.725C110.873 24.9527 110.844 25.4692 110.844 26.2773V29.3057H108.939V18.8413Z" fill="#527B69"/>
<path d="M123.149 21.7557H125.053V29.3055H123.149V28.502C122.776 28.8527 122.402 29.104 122.027 29.258C121.652 29.4119 121.244 29.4902 120.807 29.4902C119.821 29.4902 118.971 29.1135 118.253 28.3575C117.535 27.6041 117.177 26.6655 117.177 25.5447C117.177 24.3813 117.525 23.4288 118.22 22.6845C118.914 21.9428 119.757 21.5708 120.75 21.5708C121.208 21.5708 121.635 21.6563 122.036 21.8243C122.437 21.9927 122.807 22.2487 123.149 22.585V21.7557ZM121.141 23.3055C120.549 23.3055 120.058 23.5115 119.668 23.9262C119.277 24.3386 119.081 24.8694 119.081 25.5162C119.081 26.168 119.279 26.7035 119.678 27.1253C120.076 27.5446 120.566 27.7555 121.148 27.7555C121.748 27.7555 122.246 27.5494 122.64 27.1347C123.036 26.7225 123.234 26.18 123.234 25.5093C123.234 24.8529 123.036 24.3219 122.64 23.9144C122.246 23.5094 121.745 23.3055 121.141 23.3055Z" fill="#527B69"/>
<path d="M126.528 21.7557H128.175V22.7154C128.352 22.3411 128.586 22.0566 128.877 21.8624C129.17 21.668 129.49 21.5708 129.836 21.5708C130.082 21.5708 130.34 21.6349 130.609 21.7654L130.018 23.4003C129.795 23.2888 129.612 23.2343 129.468 23.2343C129.177 23.2343 128.929 23.4144 128.729 23.7746C128.526 24.1348 128.426 24.8409 128.426 25.8931L128.433 26.2606V29.3055H126.528V21.7557Z" fill="#527B69"/>
<path d="M131.541 21.7557H133.446V22.6374C133.773 22.2794 134.136 22.0117 134.537 21.8362C134.935 21.6586 135.372 21.5708 135.844 21.5708C136.319 21.5708 136.751 21.687 137.133 21.9194C137.517 22.1514 137.825 22.4926 138.059 22.9381C138.362 22.4926 138.734 22.1514 139.176 21.9194C139.618 21.687 140.102 21.5708 140.625 21.5708C141.167 21.5708 141.644 21.6965 142.055 21.9453C142.467 22.1941 142.761 22.5211 142.943 22.9216C143.122 23.3244 143.212 23.9784 143.212 24.8836V29.3055H141.308V25.4903C141.308 24.6373 141.2 24.059 140.983 23.758C140.766 23.457 140.439 23.3055 140.007 23.3055C139.675 23.3055 139.379 23.3978 139.119 23.5829C138.856 23.7653 138.661 24.0211 138.534 24.3457C138.408 24.6705 138.344 25.1917 138.344 25.9121V29.3055H136.438V25.6632C136.438 24.9902 136.388 24.5022 136.286 24.2012C136.186 23.898 136.033 23.6751 135.832 23.5259C135.63 23.3789 135.384 23.3055 135.097 23.3055C134.777 23.3055 134.486 23.3978 134.226 23.585C133.964 23.7722 133.77 24.033 133.639 24.3694C133.51 24.7058 133.446 25.2367 133.446 25.9595V29.3055H131.541V21.7557Z" fill="#527B69"/>
<path d="M150.644 21.7557H152.549V29.3055H150.644V28.502C150.272 28.8527 149.897 29.104 149.522 29.258C149.148 29.4119 148.739 29.4902 148.303 29.4902C147.317 29.4902 146.467 29.1135 145.749 28.3575C145.031 27.6041 144.673 26.6655 144.673 25.5447C144.673 24.3813 145.021 23.4288 145.715 22.6845C146.41 21.9428 147.253 21.5708 148.246 21.5708C148.704 21.5708 149.131 21.6563 149.532 21.8243C149.933 21.9927 150.303 22.2487 150.644 22.585V21.7557ZM148.637 23.3055C148.045 23.3055 147.553 23.5115 147.164 23.9262C146.773 24.3386 146.577 24.8694 146.577 25.5162C146.577 26.168 146.775 26.7035 147.174 27.1253C147.573 27.5446 148.061 27.7555 148.644 27.7555C149.243 27.7555 149.742 27.5494 150.136 27.1347C150.532 26.7225 150.73 26.18 150.73 25.5093C150.73 24.8529 150.532 24.3219 150.136 23.9144C149.742 23.5094 149.241 23.3055 148.637 23.3055Z" fill="#527B69"/>
</g>
</g>
</g>
<defs>
<clipPath id="clip0_383_128">
<rect width="153.086" height="48" rx="1.41746" fill="white"/>
</clipPath>
<clipPath id="clip1_383_128">
<rect width="153.086" height="48" fill="white"/>
</clipPath>
<clipPath id="clip2_383_128">
<rect width="153.067" height="48" fill="white" transform="translate(0.0107422)"/>
</clipPath>
</defs>
</svg>
