<svg width="102" height="80" viewBox="0 0 102 80" fill="none" xmlns="http://www.w3.org/2000/svg">
<path d="M23.6522 80C16.7536 80 11.0377 77.6296 6.50435 72.8889C2.16812 67.9506 0 61.4321 0 53.3333C0 35.1605 5.91304 20.9383 17.7391 10.6667C22.8638 5.92593 28.7768 2.37038 35.4783 0L38.4348 7.4074C34.2957 8.79013 30.1565 11.0617 26.0174 14.2222C17.3449 20.7407 12.1217 29.3333 10.3478 40L14.1913 37.9259C17.3449 36.3457 20.4985 35.5556 23.6522 35.5556C29.5652 35.5556 34.6899 37.8272 39.0261 42.3704C43.5594 46.7161 45.8261 51.8519 45.8261 57.7778C45.8261 63.7037 43.5594 68.9383 39.0261 73.4815C34.6899 77.8272 29.5652 80 23.6522 80ZM79.8261 80C72.9275 80 67.2116 77.6296 62.6783 72.8889C58.342 67.9506 56.1739 61.4321 56.1739 53.3333C56.1739 35.1605 62.087 20.9383 73.913 10.6667C78.8406 5.92593 84.7536 2.37038 91.6522 0L94.6087 7.4074C90.4696 8.79013 86.3304 11.0617 82.1913 14.2222C73.5188 20.7407 68.2957 29.3333 66.5217 40L70.3652 37.9259C73.5188 36.3457 76.6725 35.5556 79.8261 35.5556C85.7391 35.5556 90.8638 37.8272 95.2 42.3704C99.7333 46.7161 102 51.8519 102 57.7778C102 63.7037 99.7333 68.9383 95.2 73.4815C90.8638 77.8272 85.7391 80 79.8261 80Z" fill="#D1DFD8"/>
</svg>
